<?xml version="1.0" encoding="UTF-8"?>
<!DOCTYPE svg PUBLIC "-//W3C//DTD SVG 1.1//EN" "http://www.w3.org/Graphics/SVG/1.1/DTD/svg11.dtd">
<svg xmlns="http://www.w3.org/2000/svg" version="1.1" width="5293px" height="1160px" style="shape-rendering:geometricPrecision; text-rendering:geometricPrecision; image-rendering:optimizeQuality; fill-rule:evenodd; clip-rule:evenodd" xmlns:xlink="http://www.w3.org/1999/xlink">
<g><path style="opacity:0.998" fill="#c1172d" d="M 649.5,0.5 C 652.685,0.0196449 655.519,0.686312 658,2.5C 670.137,22.7766 680.137,44.1099 688,66.5C 711.128,136.472 726.461,208.139 734,281.5C 745.948,397.243 749.281,513.243 744,629.5C 740.891,707.689 735.225,785.689 727,863.5C 723.818,867.057 720.318,867.391 716.5,864.5C 633.107,744.453 558.273,618.787 492,487.5C 471.461,444.883 453.461,401.216 438,356.5C 426.869,323.31 419.535,289.31 416,254.5C 408.841,168.877 439.008,100.044 506.5,48C 527.332,33.5856 549.999,22.919 574.5,16C 599.488,10.1033 624.488,4.93665 649.5,0.5 Z"/></g>
<g><path style="opacity:0.999" fill="#c1172d" d="M 879.5,0.5 C 917.865,5.07226 955.199,13.9056 991.5,27C 1060.55,60.0733 1102.72,114.24 1118,189.5C 1122.26,229.204 1119.93,268.537 1111,307.5C 1102.81,342.746 1091.81,377.08 1078,410.5C 1051.53,472.763 1021.87,533.43 989,592.5C 936.212,686.613 879.045,777.78 817.5,866C 814.331,866.978 811.497,866.478 809,864.5C 789.346,693.923 784.679,522.923 795,351.5C 800.356,266.031 814.356,182.031 837,99.5C 846.839,64.5042 861.006,31.5042 879.5,0.5 Z"/></g>
<g><path style="opacity:0.997" fill="#c2172c" d="M 234.5,204.5 C 236.371,204.859 237.871,205.859 239,207.5C 404.695,418.361 545.029,646.027 660,890.5C 661.314,893.624 662.48,896.791 663.5,900C 663.385,901.895 662.718,903.562 661.5,905C 658.833,905.667 656.167,905.667 653.5,905C 541.582,849.607 433.248,788.607 328.5,722C 275.919,688.358 226.586,650.358 180.5,608C 107.71,533.039 91.5429,447.205 132,350.5C 157.552,295.71 191.718,247.044 234.5,204.5 Z"/></g>
<g><path style="opacity:0.997" fill="#c2172c" d="M 1299.5,204.5 C 1340.81,242.996 1373.98,287.663 1399,338.5C 1420.32,381.453 1428.66,426.787 1424,474.5C 1417.15,520.183 1398.49,560.183 1368,594.5C 1336.16,626.629 1301.99,655.796 1265.5,682C 1181.5,740.354 1094.17,793.687 1003.5,842C 963.293,863.27 922.959,884.27 882.5,905C 873.893,906.184 871.06,902.684 874,894.5C 989.801,647.207 1131.63,417.207 1299.5,204.5 Z"/></g>
<g><path style="opacity:0.993" fill="#242729" d="M 1825.5,381.5 C 1865.5,381.5 1905.5,381.5 1945.5,381.5C 1945.5,460.167 1945.5,538.833 1945.5,617.5C 2034.17,617.5 2122.83,617.5 2211.5,617.5C 2211.5,538.833 2211.5,460.167 2211.5,381.5C 2251.17,381.5 2290.83,381.5 2330.5,381.5C 2330.5,576.5 2330.5,771.5 2330.5,966.5C 2290.83,966.5 2251.17,966.5 2211.5,966.5C 2211.5,887.5 2211.5,808.5 2211.5,729.5C 2122.83,729.5 2034.17,729.5 1945.5,729.5C 1945.5,808.5 1945.5,887.5 1945.5,966.5C 1905.5,966.5 1865.5,966.5 1825.5,966.5C 1825.5,771.5 1825.5,576.5 1825.5,381.5 Z"/></g>
<g><path style="opacity:0.995" fill="#242729" d="M 2878.5,381.5 C 2918.17,381.5 2957.83,381.5 2997.5,381.5C 2997.67,499.167 2997.5,616.834 2997,734.5C 2995.46,785.119 2981.79,832.119 2956,875.5C 2922.04,925.387 2875.21,956.221 2815.5,968C 2768.17,976.667 2720.83,976.667 2673.5,968C 2579.92,946.756 2522.76,889.256 2502,795.5C 2498.55,779.327 2496.21,762.994 2495,746.5C 2493.54,625.176 2493.04,503.843 2493.5,382.5C 2533.5,382.5 2573.5,382.5 2613.5,382.5C 2613.33,498.834 2613.5,615.167 2614,731.5C 2615.18,765.038 2625.84,795.038 2646,821.5C 2667.27,844.051 2693.44,856.884 2724.5,860C 2753,863.431 2780.67,860.098 2807.5,850C 2839.01,835.147 2859.85,810.981 2870,777.5C 2874.61,761.146 2877.28,744.479 2878,727.5C 2878.5,612.167 2878.67,496.834 2878.5,381.5 Z"/></g>
<g><path style="opacity:0.995" fill="#242729" d="M 3313.5,381.5 C 3348.51,381.167 3383.51,381.5 3418.5,382.5C 3504.66,576.483 3589.99,770.817 3674.5,965.5C 3632.83,965.833 3591.16,965.5 3549.5,964.5C 3532.3,924.593 3514.96,884.76 3497.5,845C 3408.83,844.333 3320.17,844.333 3231.5,845C 3214.03,885.083 3196.36,925.083 3178.5,965C 3137.83,965.833 3097.16,965.667 3056.5,964.5C 3142.45,770.263 3228.12,575.929 3313.5,381.5 Z M 3363.5,532.5 C 3364.79,533.058 3365.62,534.058 3366,535.5C 3395.4,602.967 3424.24,670.634 3452.5,738.5C 3393.83,738.5 3335.17,738.5 3276.5,738.5C 3305.11,669.682 3334.11,601.016 3363.5,532.5 Z"/></g>
<g><path style="opacity:0.994" fill="#242729" d="M 4016.5,381.5 C 4049.41,381.171 4082.24,381.504 4115,382.5C 4158.62,515.347 4202.62,648.014 4247,780.5C 4289.81,647.907 4332.31,515.241 4374.5,382.5C 4415.83,382.5 4457.17,382.5 4498.5,382.5C 4431.36,577.242 4364.03,771.908 4296.5,966.5C 4262.93,966.829 4229.43,966.496 4196,965.5C 4152.38,838.65 4108.38,711.983 4064,585.5C 4019.66,712.348 3975.83,839.348 3932.5,966.5C 3899.26,966.829 3866.09,966.496 3833,965.5C 3765.16,771.317 3697.33,577.15 3629.5,383C 3672.17,382.5 3714.83,382.333 3757.5,382.5C 3799.84,515.528 3842.34,648.528 3885,781.5C 3929.14,648.242 3972.98,514.908 4016.5,381.5 Z"/></g>
<g><path style="opacity:0.998" fill="#242729" d="M 5292.5,381.5 C 5292.5,576.167 5292.5,770.833 5292.5,965.5C 5253.5,965.5 5214.5,965.5 5175.5,965.5C 5175.5,770.833 5175.5,576.167 5175.5,381.5C 5214.5,381.5 5253.5,381.5 5292.5,381.5 Z"/></g>
<g><path style="opacity:0.997" fill="#242729" d="M 4593.5,382.5 C 4736.83,382.5 4880.17,382.5 5023.5,382.5C 5023.5,418.167 5023.5,453.833 5023.5,489.5C 4919.5,489.5 4815.5,489.5 4711.5,489.5C 4711.5,528.833 4711.5,568.167 4711.5,607.5C 4783.17,607.5 4854.83,607.5 4926.5,607.5C 4926.5,643.5 4926.5,679.5 4926.5,715.5C 4854.83,715.5 4783.17,715.5 4711.5,715.5C 4711.5,763.167 4711.5,810.833 4711.5,858.5C 4819.17,858.5 4926.83,858.5 5034.5,858.5C 5034.5,894.167 5034.5,929.833 5034.5,965.5C 4887.5,965.5 4740.5,965.5 4593.5,965.5C 4593.5,771.167 4593.5,576.833 4593.5,382.5 Z"/></g>
<g><path style="opacity:0.997" fill="#c1172d" d="M 1520.5,595.5 C 1522.48,596.848 1523.65,598.848 1524,601.5C 1548.1,689.985 1534.43,771.985 1483,847.5C 1431.63,916.449 1362.8,954.616 1276.5,962C 1155.5,962.667 1034.5,962.667 913.5,962C 909.366,957.864 909.7,953.864 914.5,950C 983.171,904.354 1053.17,860.687 1124.5,819C 1255.43,742.7 1387.43,668.2 1520.5,595.5 Z"/></g>
<g><path style="opacity:0.997" fill="#c1172d" d="M 13.5,596.5 C 183.569,687.353 350.902,782.52 515.5,882C 551.173,904.168 586.506,926.834 621.5,950C 626.342,953.694 626.675,957.694 622.5,962C 503.505,963.548 384.505,963.881 265.5,963C 166.723,955.391 91.2231,909.891 39,826.5C -2.10648,753.507 -10.6065,676.84 13.5,596.5 Z"/></g>
<g><path style="opacity:0.997" fill="#c1172d" d="M 599.5,996.5 C 604.959,996.103 610.292,996.603 615.5,998C 619.53,1001.96 619.197,1005.62 614.5,1009C 555.042,1051.91 493.375,1091.57 429.5,1128C 409.079,1139.21 387.745,1148.21 365.5,1155C 327.11,1162.66 290.777,1156.99 256.5,1138C 229.086,1122.26 204.919,1102.43 184,1078.5C 167.023,1058.68 152.19,1037.35 139.5,1014.5C 140.025,1013.81 140.692,1013.31 141.5,1013C 294.339,1007.83 447.006,1002.33 599.5,996.5 Z"/></g>
<g><path style="opacity:0.997" fill="#c1172d" d="M 1203.5,1159.5 C 1201.17,1159.5 1198.83,1159.5 1196.5,1159.5C 1177,1158.46 1158.34,1153.62 1140.5,1145C 1107.74,1129.46 1076.08,1112.13 1045.5,1093C 1003.02,1066.18 961.348,1038.18 920.5,1009C 915.523,1002.57 917.023,998.407 925,996.5C 1078.47,1002.32 1231.97,1007.82 1385.5,1013C 1389.21,1013.17 1392.88,1013.67 1396.5,1014.5C 1375.23,1052.84 1347.89,1086.34 1314.5,1115C 1282.14,1141.52 1245.14,1156.35 1203.5,1159.5 Z"/></g>
</svg>
