<svg version="1.2" xmlns="http://www.w3.org/2000/svg" viewBox="0 0 1735 510" width="1735" height="510">
	<title>nankai-university-cdr</title>
	<defs>
		<clipPath clipPathUnits="userSpaceOnUse" id="cp1">
			<path d="m-45-45h2480v3508h-2480z"/>
		</clipPath>
	</defs>
	<style>
		.s0 { fill: none;stroke: #711a5f;stroke-width: 10 } 
		.s1 { fill: #711a5f } 
		.s2 { fill: #7a285e;stroke: #ff2e17;stroke-width: .1 } 
		.s3 { fill: #7a285e } 
	</style>
	<g id="layer1">
		<path id="path2991" class="s0" d="m255 505c-138.3 0-250-111.8-250-250 0-138.3 111.8-250 250-250 138.3 0 250 111.8 250 250 0 138.3-111.8 250-250 250z"/>
		<path id="path2993" class="s0" d="m266.5 113.9l34.4 34.5h45.2 16.2v16.2 45.2l35.6 35.6 11.5 11.4-11.5 11.5-31.9 31.9v46.3 16.2h-16.2-50l-33.3 33.4-11.5 11.4-11.5-11.4-32.6-32.7h-48.5-16.2v-16.2-46.3l-34.1-34.1-11.5-11.4 11.5-11.5 34.1-34.1v-46.3-16.2h16.2 47.8l33.3-33.4 11.5-11.5z"/>
		<g id="g3780">
			<path id="path2995" class="s0" d="m255 420.3c-91.4 0-165.3-73.9-165.3-165.3 0-91.4 73.9-165.3 165.3-165.3 91.4 0 165.3 73.9 165.3 165.3 0 91.4-73.9 165.3-165.3 165.3z"/>
		</g>
		<path id="path2997" fill-rule="evenodd" class="s1" d="m31.4 318l-0.8-11.3 27.3-28.3-32.3 4.9-1.5-9 47.9-7.5 0.2 10.2-28.6 29.8 34.5-5.1 0.4 8.9c0 0-47.1 7.4-47.1 7.4z"/>
		<path id="path2999" fill-rule="evenodd" class="s1" d="m63.6 226.9l-1.3 19.3 10.1 4.1-2 9.9-45.2-21.6 1.3-12.8 48.8-13.2-1.2 11.8zm-8 2.1l-20 4.4 19.2 8.2z"/>
		<path id="path3001" fill-rule="evenodd" class="s1" d="m34.2 188.2l4.4-9.9 38.7-10.3-30.3-11.7 2.9-9 45.1 17.4-4 9.2-39.9 11.5 30.2 13-3.7 9z"/>
		<path id="path3003" fill-rule="evenodd" class="s1" d="m59.7 130.9l6.9-9.3 16 11.3-7.4-23.6 7.7-10.1 8.3 26.5 31.4 1.7-6.8 10.6-27.6-0.9 17.5 12.6-6.3 9.4z"/>
		<path id="path3005" fill-rule="evenodd" class="s1" d="m144.1 98.4l-15.1 10.8 3.1 10.5-7.6 6.2-15.6-48.1 10.6-8.5 42.5 26.6-9.1 7.8zm-7.6-4.6l-16.7-11.8 6.9 19z"/>
		<path id="path3007" fill-rule="evenodd" class="s1" d="m147 51.1l10-5.2 20.9 41.8-9 5.2z"/>
		<path id="path3009" fill-rule="evenodd" class="s1" d="m250.1 23.5l11.4-0.6 0.8 29.4q0.1 4.2-1.1 7.9-1.1 3.7-3.7 6.6-2.6 2.9-5.5 4.1-4 1.8-9.7 2-3.3 0.2-7.2-0.1-3.9-0.3-6.6-1.6-2.7-1.3-4.9-3.8-2.2-2.6-3.1-5.3-1.4-4.4-1.5-7.8l-0.8-29.5 11.6-0.6 0.8 30.1c0 2.5 0.8 6.6 2.2 8 1.4 1.3 5.6 2 8.1 1.9 2.4-0.1 6.7-0.9 8-2.4 1.4-1.5 2-5.6 1.9-8.2z"/>
		<path id="path3011" fill-rule="evenodd" class="s1" d="m284.4 25.5l11.1 1.6 17.8 37.7 6.9-30.4 9.4 1.5-10.6 46.9-10.2-2.8-17-37.4-7.1 31.1-9.9-0.8z"/>
		<path id="path3013" fill-rule="evenodd" class="s1" d="m348.7 43.3l10.2 4.5-20.9 44-9.5-5z"/>
		<path id="path3015" fill-rule="evenodd" class="s1" d="m370.7 54.8l10.4 5.6-11.3 36.4 29.4-23 8.5 7.9-41.1 27.2-8.1-5.7z"/>
		<path id="path3017" fill-rule="evenodd" class="s1" d="m421.3 92.8l17 21.6-6.7 5.5-10.9-13.8-7.5 6.6 11.4 14.1-6.4 5.3-11.4-14.1-9.8 8.7 11.3 14.3-6.4 5.1-18-21.3z"/>
		<path id="path3019" fill-rule="evenodd" class="s1" d="m408.5 153.7l39.9-23.3 9.7 16.5c3.7 5.9 2.1 11 1.2 13.2-0.9 2.2-2 3.5-4.4 5q-3.1 1.9-6.2 1.9-3.1 0-6-1.5c-1.2-0.6-2.7-2-4.9-3.2l-12.1 21.2-7.2-10.4 10.4-14.7c1.7-2 2.2-5.7 2.2-5.7l-16.9 11.2zm29.2-4.8l3.1 5c2.6 4.9 6.9 3.3 7.7 2.8 1.2-0.7 5.4-3 1.9-8.5l-3.2-5.2z"/>
		<path id="path3021" fill-rule="evenodd" class="s1" d="m438.6 188.7c0 0-3.6 8.1-2.4 11.5 0.7 1.9 2.7 4.2 4.1 4.7 2.8 1 3.9 0.4 5.2 0q1.8-0.6 2.7-2.5c0.5-1.3 0.5-3.2 0.9-5.9 0.9-6.6 1.5-8.8 2.9-12q2.1-4.9 7.5-6.6 3.6-1.1 7.5-0.2c2.7 0.7 4.4 1.4 6.6 3.5 2.2 2.2 4.4 5.1 5.5 9.8 1.3 5.5-0.5 11.1-3.1 14.4l-6.7-5c0.8-3.7 1.3-7.7 0.9-9.6-0.7-3.1-7.4-7.3-10.4 2.5-1.9 6-1.2 22-16.2 21.4-3.2-0.1-9.4-0.3-14-9.6-2.9-5.8-2.5-13.1 2.1-20.7 0 0 6.9 4.3 6.9 4.3z"/>
		<path id="path3023" fill-rule="evenodd" class="s1" d="m484.5 220.3l0.7 10.5-48.7 5.1-0.8-10.4z"/>
		<path id="path3025" fill-rule="evenodd" class="s1" d="m487.7 243.1l-0.7 36.1-9.8-0.2 0.2-12.7-40.2-0.5 0.3-11.2 40.1 0.6 0.2-12.3c0 0 9.9 0.2 9.9 0.2z"/>
		<path id="path3027" fill-rule="evenodd" class="s1" d="m485.3 288.9l-3.5 12.4-18.8 4.2 15.4 13.5-3.7 11-22-21.8-20.2-3.5 1.7-11 22.3 3.9z"/>
		<path id="path3029" fill-rule="evenodd" class="s1" d="m93.8 394.8c-4.4 0-8-3.6-8-8 0-4.4 3.6-8 8-8 4.4 0 8 3.6 8 8 0 4.4-3.6 8-8 8z"/>
		<path id="path3031" fill-rule="evenodd" class="s1" d="m415.6 394.8c-4.4 0-8-3.6-8-8 0-4.4 3.6-8 8-8 4.4 0 8 3.6 8 8 0 4.4-3.6 8-8 8z"/>
		<path id="path3033" fill-rule="evenodd" class="s1" d="m160.9 462l15.2-29.1-8.6-2.6 2.5-6.7 18.2 6.5-18.8 36.3z"/>
		<path id="path3035" fill-rule="evenodd" class="s1" d="m236.7 467.9q-4.5 0-9.1-0.3-4.5-0.4-9.1-1-9.8-1.5-13.2-4.3-3.3-2.8-2.4-8.7l0.8-5.5q0.7-5.1 4.4-7 3.8-1.9 10.9-0.9l17.2 2.6q7.7 1.1 10.1 4.2 2.4 3.1 1.4 10.3l-0.8 5.3q-1.7 11.4-10.4 16.4-8.8 5-23.1 2.9-1.2-0.1-1.8-0.3-0.6-0.1-1.1-0.2l-4.6-7.3 2.6 0.3q13 2 19.1 0.4 6.1-1.5 9.1-6.9zm1.4-6.2q0.2-0.7 0.3-1.3 0.2-0.6 0.2-1.1 0.9-6-0.4-7.7-1.4-1.7-6.7-2.4l-11.3-1.7q-4.3-0.6-6.1 0.2-1.7 0.8-2.2 3.8l-0.3 2.2q-0.4 3 1.2 4.3 1.7 1.3 7.1 2.1 3.9 0.6 8.5 1 4.6 0.4 9.7 0.6z"/>
		<path id="path3037" fill-rule="evenodd" class="s1" d="m277 482.4l-3.6-31.8-8.9 1-0.6-5.2 17.5-4.5 4.4 39.5z"/>
		<path id="path3039" fill-rule="evenodd" class="s1" d="m343.3 450.4q-4 2.2-8.1 4-4.2 1.9-8.5 3.5-9.4 3.3-13.7 2.4-4.3-0.9-6.3-6.5l-1.8-5.2q-1.8-4.9 0.6-8.3 2.4-3.5 9.2-5.9l16.3-5.9q7.3-2.6 10.9-1 3.7 1.6 6.1 8.4l1.8 5.1q3.9 10.8-1.4 19.3-5.4 8.6-19 13.5-1.1 0.4-1.7 0.6-0.6 0.2-1.1 0.3l-7.5-4.3 2.4-0.9q12.4-4.4 17.1-8.7 4.7-4.2 4.7-10.4zm-1.7-6.1q-0.1-0.7-0.3-1.3-0.2-0.6-0.3-1-2.1-5.7-4.1-6.6-2-0.8-7 1l-10.8 3.8q-4 1.5-5.2 3.1-1.2 1.5-0.2 4.3l0.8 2.2q1 2.8 3.1 3.2 2.1 0.3 7.3-1.5 3.6-1.3 7.9-3.1 4.2-1.8 8.8-4.1z"/>
		<path id="path3041" fill-rule="evenodd" class="s1" d="m210 164.2c1.9 1.7 3.3 4.6 3.3 7.5 0.1 7.2-2.6 14.3-0.4 21.5 0.5 1.7 6.8 2.2 8.1 2.1 2.6-0.1 6.5-0.8 7.5-3.6 1.1-3-1.8-6.6-2.6-9.4-0.9-3-0.9-7.8 1.7-10.3 5.9-5.5 12.1 5.6 13.4 10 1.6 5.7 2.3 13.4-1 18.7-3.1 4.8-9.9 5.7-15 5.8-3.4 0.2-12-1.2-11.9 4.1 0 4 5.3 7.6 8.9 7.7 4 0.2 8.2-1.5 12.3-1.6 3.6-0.1 8.8 0.8 10.8 4.1 2.3 3.7 3.8 14.3 4.4 21.6 1.7 21-1.9 49.9-1.5 64.1 0.4 11.2 4.3 24.8-9.5 20.2-3.1-3.4-1-7.5-0.7-12 0.7-12.1 0-27.2 0-41.7 0-6.5 1-12.9 0.8-19.4-0.1-4.4 0.8-17-4.7-18.5-4.9-1.3-9.4 4.5-11.5 8.1 1.4 2.5 6.7 1.1 7.3 4.4-0.9 3.3-0.2 8.3-2.2 10.5-3.7 2-9.8-1.7-13.9 0.7-1.6 2.3-2.9 5.1-0.7 7.5 6.3 0.6 14.4-0.6 15.4 5.2 1.5 9.2-9.8 5.1-14.7 9.7-3.7 15.3 2.2 41.6 0 55.2-0.4 2.6-1.6 8.4-5.1 8.9-6.6 1-9-11.5-9.6-17.9-1.4-18.1 2.5-32.7-0.7-47.7-6.5-1.7-13.8 0.4-14.6-5.2-1.3-8.3 11-4.3 14.6-10.5 0.5-8.8-9.9-2.5-13.9-5.9-1.7-1.5 0.4-11 0.3-13.3-0.2-4.2-4.6-11.7-7.9-5-3.4 7-1.6 17-0.9 24.4 0.4 4.4 1 8.8 1.2 13.3 0.5 12.8 4.7 51.3-3.7 52.9-8.9 1.7-9-12.4-9.5-21.6-1-18.4 1.1-47.3 0-63.4-0.4-5.2-3.6-14.4-3-17.9 2.6-13.9 22.1-7.3 31.3-11.4 2.2-0.9 7.8-4.7 6.1-7.7-1.4-2.3-8.3-1.6-10.7-1.9-6.5-0.7-14.1-1.3-17.1-8.1-1.1-11.8 1.6-28.4 10.2-26.1 8.5 2.4 0.8 11.5 3.7 18.7 1.2 3 5.9 7 11 5.2 11.1-4-0.4-23.8 6-31 3.1-3.4 6.3-3 8.7-1zm-8.2 63.5c-3.6-0.1-9.7-2.9-12.9-0.4-2.2 1.8-0.7 3.5 0.9 5.3 2.4 2.6 4.5 4.9 6.4 7.9 1.9 2.9 4.1 7 8.2 6.5 5.9-0.7 6.5-9.2 9.8-12.9 0.4-0.5 1.4-0.8 1.9-1.2 0.7-0.4 1.4-0.8 2-1.3 0.9-0.7 2.3-2 1.7-3.2-0.7-1.4-3-1.5-4.4-1.6-2-0.1-4.1 0.3-6.2 0.5-2.4 0.3-5 0.5-7.4 0.4z"/>
		<path id="path3043" fill-rule="evenodd" class="s1" d="m297.3 237.6c-3.2 3.1-9.5 0-13.5 1.3-12.4 4-5.7 35.4-7.4 49.4-1 8.6-3.8 17.4-5.9 25-1.5 5.7-2.3 11.9-4.6 17.3-3.2 7.7-11.5 2.1-11-4.6 0.3-4.9 3.4-8.8 4.6-13.4 8.5-33 8.1-85.6 3.7-121.7-0.4-2.9-0.9-5.9-0.3-8.9 0.3-1.9 1.8-6 4-6.4 2.1-0.4 5.2 3.1 6.9 4.2 5.9 3.7 10.4 3.2 12.2-4.4 1.5-6-2.4-7.7 2.2-10.3 10.3-5.6 11.4 19.2 11.8 25.1 0.9 10.8 0.9 21.5 0 32.3-0.3 4.1 0.1 9.4-1.5 13.3q-0.5 1.1-1.2 1.8zm-22-42.1c-2.6 2.7-0.9 7 4.6 7.9 1.9 0.4 8-0.2 8.9-2.4 1.6-3.6 1.1-7.2-0.9-8.4-1.9-1.1-5.4 0.1-8.6 0.8-1.8 0.4-3.2 1.1-4 2.1zm3 33.9c1.7 0.5 4.5-1 6-1.7 1.8-1 3.2-2.4 4.1-4 3.1-5.2 0.4-14.9-8.6-11-4.6 2-5 7.5-4.7 11.1 0.2 1.6 0.9 4.9 3 5.6q0.1 0 0.2 0z"/>
		<path id="path3045" fill-rule="evenodd" class="s1" d="m325.1 182.1c1.1 0 4-2.4 5.1-2.9 1.7-0.8 3.4-1.5 5.3-1.5 7.2 0 7.3 7 6.7 12.2-1 8-1.8 15.8-2 23.8-0.2 16 0.3 32 1.2 48 0.5 8.9 1.1 17.9 1.6 26.9 0.3 5.3 0.6 10.6 0.8 15.8 0.3 4.9-0.5 10.5 0.8 15.2 1.3 4.3 5.6 14-1.8 15.8-9.7 2.4-11-14.7-11.8-23.5-1-11.9 4.8-64.8-3.7-70.8-4.1-2.9-8-1.7-12.6-1.3-5.9 0.5-9.4-1.3-9.3-7.3 0.1-5.8-0.8-11.4-1.1-17.2-0.7-13-1.4-26.6 0.8-39.5 0.5-2.7 1.4-8.9 5.3-9.2 8.1-0.6 5.5 15.1 14.7 15.5zm-7.7 17.8c0.9 1.2 2.2 2.2 3.8 2.7 3.5 1.1 9.6 1.9 11.2-2.5 0.4-1.2-1.5-4.3-2.1-5.3-1.2-1.6-2.8-2.8-4.6-3.7-2.7-1.3-7.7-2.6-9.1 1.1-1 2.7-0.6 5.6 0.8 7.7zm11.9 28q0.6-0.7 0.9-1.6c1-3.4 0.7-7.1-1.3-10-1-1.5-5.1-2.8-7-2.5-1 0.1-2.8 0.2-3.5 0.9-0.7 0.7-0.5 1.5-0.8 2.4-1.2 3.2-0.6 9.8 2.9 11.8 2.6 1.6 6.8 1.2 8.8-1z"/>
		<path id="path3047" fill-rule="evenodd" class="s1" d="m320.9 245.8q0.4 0.7 0.5 1.7c0.3 2-0.4 4.1-1 6-0.6 2.2-2.7 4.5-1.5 6.8 1 1.9 3.8 1.8 4 4.4 0.2 2.8 0.2 5.2-1.2 7.8-1.4 2.7-3 3.6-3.1 6.7-0.1 3 0 6-0.1 8.9-0.2 7.2-0.5 14.4 0 21.5 0.4 5.8 7 22.4-1.3 25.6-3.9 1.5-7.9-2.1-9.1-5.5-1.8-5.3-0.6-11.8-0.5-17.2 0.4-12 2.2-24.2-0.2-36-0.9-4.8-4.6-10.2-2.1-15.1 0.7-1.2 1.9-2 1.9-3.3 0-1-1.4-2.6-1.9-3.5-1.4-2.7-2.2-5.2-0.8-8.2 1.7-3.5 5.3-4.5 9-4.3 3.1 0.2 6.1 1 7.4 3.7z"/>
		<path id="path3049" fill-rule="evenodd" class="s1" d="m297.1 276.5c-1.5 16.6-0.2 35.1-5.2 50.1-1.7 5-8.2 18.8-13.2 17.7-8.9-1.9 0.5-14.7 2.2-19.2 4.5-12.1 7.4-31.9 5.1-47.2-3.7-2.6-4.2-8.3-3-12.4 0.6-2 4.1-3.9 4.4-5.8 0.4-2.3-3.1-3.9-4.2-5.7-2.2-3.3-1.8-6.8 1.5-9.3 4.7-3.5 16.6-2.6 14.5 5.6-0.8 3.3-4.3 5.8-3.7 9.4 0.5 3.2 5.4 6.2 5.3 9.4-0.1 3.4-3 5.6-3.7 7.4z"/>
	</g>
	<g id="Page 1" clip-path="url(#cp1)">
		<g id="Group 1">
			<path id="Object 32" class="s2" d="m624.3 228.4c4.2 1.2-2.9 15.5-5.6 21.9-0.3 0.8-2.6 5.7-3.2 6.7-1.2 2.2-2.1 4.6-2.8 7-1.3 5.1-1.4 10.4-1.1 15.5 0.7 10.9 4.4 19.9 4.2 30.8-4 0.6-6.7 4.5-10.7 4.4-9.7-9.2-27.2-30.1-4.9-37.3 1.3-0.4 2.6-11.1 2.9-12.7 1.2-4.9 2.4-9.8 4.2-14.6 1.9-5.2 4.5-11.3 8.6-15.4 2-1.9 5.8-5.5 8.4-6.3zm148.5 5.5c0.6-13.7 2-27.4 2.2-41.1v-1.1-1.1h0.1v-1-1.1-0.8-0.3c0-4.3 0.3-8.4 0.8-12.6l0.1-0.3v-0.3-0.3l0.1-0.3v-0.2-0.3l0.1-0.3v-0.3l0.1-0.3v-0.3l0.1-0.3v-0.3l0.1-0.2v-0.3l0.1-0.3v-0.3c0.6-3.5 2.1-8.7-1.8-11-5.7-3.3-16.6 3.6-21.3 6.1-28.5 14.7-56.2 31-85 45.2-5.7 2.8-11.4 5.5-17.5 7.6-5.3 1.8-10.7 2.2-16 4.1-5.5 2-9.4 2.5-15.4 2.3-2.3-10.7 16.5-19.5 24.4-23.8 5.9-3.1 12-5.8 18.2-8.4 3.9-1.6 15.2-4.3 17.5-7.6 7.4-10.6 12.1-23.7 13.4-40-17.9 5-63.3 25.4-66.7 27.3-5.6 3.3-10.4 5.7-18.2 2.5-9-3.7 1.9-16.9 7.7-21.1 0.1 2.2-0.9 7.1 1.6 8.3 1.4 0.7 6-0.9 7.4-1.4 10.4-3 20.5-8.1 30.2-12.6 11.7-5.3 23-11.3 34.4-17 3.5-1.7 8.1-1.8 10-5.4 1.9-3.7 1.5-10.3 2.1-14.5 1.3-9.5 2.6-19.1 5.8-28.4 1-3.3 3.1-6.5 3.9-9.7l0.1-0.2v-0.2l0.1-0.2v-0.2-0.1-0.2h0.1v-0.2-0.2-0.2-0.2h0.1v-0.2-0.1-0.2-0.2-0.2-0.2l0.1-0.2v-0.2-0.2-0.2-0.2-0.2-0.2-0.2-0.2-0.1-0.2-0.2-0.2-0.2-0.2-0.2l-0.1-0.2q0-1.6-0.1-3.2v-0.2-0.1-0.2-0.2h-0.1v-0.2-0.2-0.2-0.2-0.2-0.2-0.2-0.1-0.2-0.4-19.7-0.4-0.4-0.4-0.4-0.4-0.4-0.4-0.4-0.4-0.5-0.4-0.4-0.4-0.4-0.4q0-14.7 0-29.5c7.6-1.8 36.8 28.1 37.9 29.7 11.2 16.8-7.4 66-12.2 79 17.2 0.9 31.6-10.9 46.5-16 3.4-1.2-9.8-9.7-10.5-10-2.4-1.1-5-2-7.1-3.5l-0.1-0.1-0.1-0.1h-0.1l-0.1-0.1c-1.3-1.2-2.6-3.3-2.6-4.9v-0.1c6.7-0.2 13.9 1.7 20.8 1.7 4.1 0 8.2-0.1 12.3-0.1 2.9-0.1 6.5-1.2 9.4-0.4 3 0.8 3.3 3.1 5.7 4.7 1.9 1.3 5.4 0.9 6.6 2.4 4.6 6.2-1.9 11.7-7.5 13.5-9 2.9-17.6 6.7-26.6 9.9-8.9 3.3-17.7 7-26.6 10.3-4.8 1.8-9.5 3.6-14.4 5.3-2.8 0.9-12.5 2.4-14.2 4.6-4.7 6.2-8.3 13-11.7 19.9-3.2 6.5-8.3 14.1-9.8 21 8.3 0.3 18.9-5.3 26.4-8 12.9-4.7 25.7-9.7 38.7-14.2 4.3-1.5 9-3.8 13.5-4.5 3.9-0.6 2.8-0.5 5.3 2 2.4 2.5 5.8 3.1 7.1 6.5 1.8 4.8-0.8 11.8-1 16.7-0.7 16.9-2.5 33.8-4 50.6-2.1 25.3-4.3 50.6-6.6 75.8-0.4 3.7-1.1 7.2-1.3 10.9-0.2 3.5 1.5 12.2-2 14.7-8 5.8-29.1-13-34.6-17.4-4.2-3.4-8.2-7-12.9-9.8-1.4-0.8-3.4-3.7-5.3-3.1-2.9 1-2.1 2.9-3.8 4.4-3.6 3.3-17.8 1.9-22 0.8-5.7-1.6-6.1-6.9-5.3-11.8 0.1-1.2-10.7-1.3-12.1-3.2-0.3-0.5-0.4-3-0.8-3.8-1.8-4.6 1.9-5.6 5.4-7.8 4.2-2.6 8.5-4.4 13.6-4.6 1.5-0.1-1.4-5.7-1.9-6.2-1.7-1.7-4.4-2.3-6.6-3.3-4.1-1.7-9.2-2.7-6.9-7.8 2.2-4.7 10.4-9.6 15.4-11.3 0.6-0.2 3.2-8.2 3.9-9.4 1.7-2.9 3.8-5.6 5.9-8.4 3.7-5.3 9.3-12.7 8.2-19.4-0.1-0.9-1.8-3.8-13.1 5.1-3.8 3-7.2 8.4-10.2 12.1-3.6 4.3-7.5 8.2-10.9 12.6-3.3 4.2-4.8 8-11 7.6-5.2-0.3-10.4-2.4-14.8-4.9-6.5-3.7-9.5-4.9-6.8-12.4-0.2 0.6 21.1-0.8 23.2-1.5 6.9-2.4 12.5-7.1 18.2-11.2 5.2-3.7 10.2-7.7 14.7-12.1 4.5-4.3 6.9-5.2 12.7-7.3 4.6-1.6 8.2-5 12.8-6.5 7.2-2.3 17.8 4.2 13.4 11.8-1.6 2.8-5.6 4.7-7.8 7.2-2.3 2.7-4 5.8-6.8 8.2-7.9 6.9-16.8 14.6-21.6 23.9 4.6 1.3 12.3-2.8 15.4 0.9 2.3 2.8 1.1 7.5 0.7 10.7-0.4 3.5-4.8 5.2-5.2 7.9-0.7 3.6 3.9 2.7 6 3.5 2.3 0.9 1.8-0.6 2.7 1.9 0.8 2.2-1.4 7.1-1.8 9.4-0.7 3.4-1.5 6.6-0.6 10.2 2.8 11 5.6 10.4 12.7 13.5 8.1 3.6 27.6 11.5 24.3-0.8-2.8-10.7 3.8-23.6 3.2-33.9v-1l-0.1-1.1v-1l-0.1-1.1v-1.1-1-1.1-1l-0.1-1.1v-1.1-1h0.1v-1.1-1-1.1-1.1-1l0.1-1.1v-1-1.1l0.1-1v-1.1z"/>
			<path id="Object 33" fill-rule="evenodd" class="s2" d="m931.6 208c8.1-1.4 6.2 10.6 6.7 15.1 0.8 6.1 1.8 12.1 2.8 18.2 1.3 8.5 5.2 17.5 5.5 26.1 0.4 8.5-28 16.1-28.3 13.7-1.5-12.5 1.7-26.7 3.9-39.1 1.1-6.3 2.4-12.6 4.1-18.8 0.5-1.7 3.4-14.9 5.3-15.2zm155.6 56.7c0 4.3-0.3 8.5-0.4 12.8v0.2 0.2 0.2 0.2 0.2c-0.2 6.1 1.9 10-2.7 14.7-1.9 1.9-8.6 9.8-11.8 9.2-3.1-0.7-44.3-14-60.5-21.6-7.5-3.5-15.4-6.1-23.1-9.3-4.1-1.8-9.4-5.9-8.4-10.7-3.3 0.3-12.1-0.4-11.7-5.2 0.3-2.8 5.6-4.6 7.8-5.7 3.1-1.5 5.5-2.7 6.7-6 3.1-8.5-9.1-6.1-14.7-6.2 0.2-6.5 3.8-9 9.3-11.9 5.5-3 10-6.3 15.9-8.6 7.7-3 13.7-8 20.7-12.1 7.8-4.5 10.7 0.6 18.7 0.8 2.8 9.6-5.3 10.3-10.8 15.9 2.3 2.7 7.6 0.5 10.8 1.2 1.9 17.9 7.4 42.8-11.9 53.7 1.6-0.9 10 2.1 11.9 2.5 4.5 0.9 9.1 1.8 13.6 2.5 8.2 1.2 17.3 2.7 25.6 1.7 3.3-14-5.6-29.1-4.8-43.3-9.1-32.2 4.6-85.5 0.2-124.5-5.2-0.7-1.9 17.1-2.1 19.3-0.3 4.6-3.8 6.2-7.2 9.2-4.7 4-7.1 8.8-9.7 14.1-1.4 3-2.9 6-4.5 8.8-1.2 2-4.7 5.7-4.9 7.8-0.5 6.5 6.1 14.8-5.3 14-4.4-0.3-9.2-1.5-12.8-3.9-1.2-0.8-6.9-7.8-7.5-7.8-11 1.1-11 12.6-11.2 20.5 0 4.6-5.7 12.5-11.8 13.8l-0.4 0.1h-0.3l-0.4 0.1h-0.3-0.4-0.3-0.4-0.3l-0.4-0.1-0.3-0.1-0.3-0.1c-0.4-4.5 2.3-8.4 3.4-12.6 0.7-2.7 0.4-6.9-0.2-9.5-5.2 2.3-11 12.7-16.3 12.7-3 0.1-8.4-5.5-9.5-7.8-5-11.4 26-14.2 32.2-17 0.4-0.2 2.3-15.1 2.8-16.9 1.4-5.1 4-11.5 3-16.8 0.4-2-13.2 5.9-14.7 6.8-4.8 2.9-9.4 6-14.3 8.8-9.1 5-22.7 10.2-33.5 7.4-2-0.5-3.5-2.1-5-3.2 4.9-8.2 18.7-14.6 27.3-18.9 10.7-5.4 22-9.8 33.2-14.1 1.5-0.6 0.5-2.5 1.5-3.2 1.4-0.9 5.3-0.3 7-0.3 3.8 0 9.2-1.3 12.6 0.9 4.4 2.9 2 9 0.7 12.9-3.4 10.3-9.4 18.5-8.3 29.8 29.9 6.3 30.7-14.7 42.8-25.2 2.1-18.2 6.7-34.2 12.2-49.2 3.8-0.2 7-0.5 10.7-0.6 3 0 8.2-1.4 11-0.6h0.1l0.1 0.1c5.9 2.1 3.2 17.9 3.7 22.8 3.4 38.9-9.7 77.4-6 123.6l0.1 0.3 0.2 0.4 0.2 0.3 0.2 0.3 0.2 0.4c3.2 6.6 3 14.7 3 21.8zm-66.1 12q0 0 0 0 0 0 0 0zm-20.7-27.6l-0.2 0.2c-1.1 1.1-1.3 3.7-1.7 5-0.8 3.1-2.9 7.3-2.6 10.5 0.6 5.3 7.6 4.6 12.3 6.8 1.4-6.8 5.4-18.6-1.5-23.9-0.9 2.1-4.8 0.3-6.3 1.4zm-4-19.3q0 4 0 8c4.5-4.3 13.7-5.9 15.2-12.9-7.7-1.5-5.6 1.5-15.2 4.9z"/>
			<path id="Object 34" class="s3" d="m1224.3 225.3c-6.9-2.6-10.6-6.4-11.3-18.4 4.4 0.1 4.2 4.5 7.3 5.8 10.6-3.1 23.5-4 29.4-11.5 0.3-0.5 9.8-1.1 11.3-1.6 3-1 5.8-2.6 8.5-4.2 3.6-2.2 8.2-3.1 11.4-5.6 5-3.7 4-11.1 5-16.4 2.6-13.9 8.3-27.2 10.5-41.2 1.3-8.5-5.3-27.2 8.9-28.4 2.9-0.3 4.4 2.2 5.6 4.2 2 3.2 2.4 2.3 5.4 4.1l0.3 0.2 0.2 0.1 0.2 0.1 0.2 0.2 0.3 0.1 0.2 0.2 0.2 0.1 0.2 0.2c4 2.6 6.5 5.4 6.6 10.1v0.2c0 4-0.3 8-0.8 12l-0.1 0.2v0.3l-0.1 0.2v0.3 0.2l-0.1 0.2v0.3 0.2l-0.1 0.2v0.3l-0.1 0.2v0.3l-0.1 0.2v0.2c-0.4 2.2-0.7 4.6-1.9 6.6-1.7 2.6-2.8 3.3-3.5 6.3-0.9 3.2-1.5 6.3-2.6 9.4-2.3 6.1-5.2 11.8-5.7 18.3 6.8 3.3 14.2-2.7 20.8-3.5-1.8-7.9-1.8-6.9 0-14.8 0.3-1.3 10.4 0.3 11.5 0.3 1.6 0 3.6 0.2 5.1-0.6 1.2-0.7 1.1-2.5 2.4-3.1 1.5-0.8 5.2-0.1 6.9 0 5.6 0 11.3-0.1 16.9-0.1 6.5 19.1-16.9 19-37.2 25.8l-0.9 0.3-0.9 0.3-0.9 0.3-0.8 0.3-0.9 0.3c-17.2 5.9-31.8 11.6-31.8 11.6-6.8 36.8-27.4 76-69 86.9-11.8 3.1-27.4 5.8-39.7 4.6-1.9-0.2 3.3-3.1 3.1-2.9 2.3-2.4 1.7-2.9 6-4.1 7.7-2.1 15-5.1 22.1-8.7 13.2-6.9 24.9-16 37.1-24.3 1.1-0.7 1.9-8.2 2.5-9.8 1.1-3 2.6-5.9 4.1-8.8 2.8-5.3 10.8-16.5 10.5-22.5-5.8 4.5-10.8 7.7-17.8 10.3-5 1.9-11.2 6.6-16.6 7.2-1.8 0.2-14.6 2-17.8 0.8zm90.2-6.9c-1-0.1 5 3.6 5.5 3.9 1.1 0.4 2.5 0.5 3.3 1.4 0.9 1.1 0.5 3 1.6 3.9 1.1 1 4.5 1.3 6 1.9 3.7 1.4 7.2 3.3 10.5 5.5 2 1.3 16.8 14.1 18.3 13.1 7.9-4.8 17.9 1.1 26.3-1.2 3-0.9 7.3-2.5 6.7 2.1-0.1 0.8-5.5 8.2-6.1 8.3-14.6 2.9-20.5 12.6-31.8 11.4-9.3-1-30.5-25.9-30.5-27.4-7.3-6.9-15.4-13.1-20.8-21.8 3-0.9 6.5-1.5 11-1.1z"/>
			<path id="Object 35" fill-rule="evenodd" class="s3" d="m1526.7 226.1c0.3 1.2 54.8-26.2 59.3-28.6 7.5-4.1 15.5-6.2 23.4-9.6 5.8-2.5 11.4-5.6 17-8.8 8.2-4.6 38-14.4 43-14.6 10.2-0.4 15.6 4.5 14.7 15.2-1 11.4-13.4 18.7-22.9 23.9-13.2 7.1-26.3 13.9-38.7 22.4-1.6-8.1 8.5-13.1 13.4-18.2 8.7-8.9 16.9-18.9 24.4-28.8-11.4-3.4-24.9 4.3-34.3 9.5-5 2.7-9.8 5.8-15.1 7.9-3.9 1.6-8.1 2.6-11.8 4.6-3.9 2.2-5.5 5.6-8.7 8.6-2.9 2.7-7 3.5-10 6.4-5.4 5.2-12.5 8.8-18.9 12.8-7.4 4.6-14.7 9.3-22.7 12.9-7.5 3.5-15.5 9.8-24.2 10.3-11.4 0.6-17.1-9.9-12.2-18.9 4.1-7.5 10.9-6.5 17.9-9.5 5.1-2.1 9.4-5.7 13.7-8.8 9.8-6.9 20.8-10.7 31.2-16.3 6.7-3.5 13-7.5 19.4-11.2 3.3-1.8 6.5-3.6 9.9-5.2 2.9-1.4 8.1-2.5 10.4-4.5 11.7-10 28.8-15 35.5-29.7 0.8-1.9-8.6-0.8-9.2-1.2-2.5-1.2-3.1-5.6-3.7-7.8 0.2 0.8-10.2 5.9-11.2 6.4-2.9 1.5-15.2 6.4-17 1.8-1-2.7 6.2-7.4 7.8-8.9 4.5-4 7.6-8.6 11.3-13.2-0.6 0.7-9.8-5.1-11.8-4.7-4.5 0.9-5.8 6.7-7.5 10.1-3.4 6.8-8.5 18.5-18.6 13-6 6.7-11.7 14.4-15.9 22.1-1.9 3.5-2.9 10-5.8 12.5-3 2.5-7.1 1.4-7.8 6.4-20.6-6.6-13.4-36.9-12.9-52.6 0.2-6.1 0-12.1-0.3-18.2 8.8 0.8 15 3.1 17.7 11.5 2.6 8.4 2.1 17.7 1.7 26.3 4.3-1.7 8.8-5 12.3-8 3-2.6 6.7-6.4 7-10.4 0.3-4.6-0.3-9.4-0.8-14-0.5-3.7-2.1-3.3-3.4-6.3-1.6-3.4-0.4-9.1-1.1-12.9-0.7-4-2-7.8-3.6-11.6-1.5-3.6-3.2-7.1-4.6-10.7-1.2-3.2-1.3-10.8-3.3-13.2-0.9-1-2.3-1.7-3.7-2.3-0.9-4.3 1.5-5.4 1.2-9.1 2.6-0.5 2.4 1.6 2.5 3.4-0.1-1.5 12.7 3.3 13.7 3.9 4 2.4 7.2 5.9 10.5 9.1 4.5 4.5 9.6 9.2 16.4 10.1 3.5 0.5 6.8-0.4 10.2-0.7 4.5-0.4 9.1 0.5 13.4-1.3 2-0.8 4.1-2 5.2-3.9 1.1-1.7 0.8-3.9 1.8-5.6 1.1-1.7 3.2-2.5 4.3-4.1 1.4-1.8 2.2-4 3.3-5.9 1.7-3.1 5.3-5.1 7.4-8 1.7-2.5 2-5.7 4.5-7.7 2.4-1.8 19.8-4.1 20.6-0.8 2.9 13.6-3.2 19.2-11 25.2-0.4 0.3 2.8 1.2 3.4 1 1.2-0.3 1.6-2 2.3-2.7 1-1 1.5-2.1 2.8-2.8 10.1-5.5 19.8-10.5 31.8-11.6 10.7-1 25.7-0.5 33 8.1 3.4 3.9-0.9 18-2.8 22.2-1.3 2.9-3 5.6-5.3 7.8-2.6 2.6-2.7 5.4-4.1 8.6-1.2 2.8-4.7 4.3-6.5 6.8-1.8 2.6-3.2 5.4-4.8 8-1.6 2.7-3.1 5.4-5.3 7.7-1.5 1.6-3.9 2.7-5.1 4.5-1.3 1.8-1 4.6-2.5 6.2-0.7 0.7-2.7 0.9-3.2 1.4-2.3 3-1.4 6-4.8 8.9l-0.1 0.1-0.1 0.2-0.2 0.1-0.1 0.1-0.1 0.1-0.2 0.1-0.1 0.1-0.1 0.1-0.2 0.2-0.1 0.1-0.1 0.1-0.2 0.1c-2.2 1.8-4 3.5-4.1 6.7v0.2c-11.8 5.7-21.1 10.5-35.5 5.7-17 15.4-99.8 60.6-121 71.4zm91.7-101.1q0 0 0 0 0 0 0 0zm49.3 105.4c3.9 1.5 6.6 4.2 6.3 9.2-0.6 8.8-7.9 11.7-16.3 12-5.6 0.2-21.5-3.3-25.1 2.1-2.4 3.7 2.8 10.5 3.5 14.4 1 5.6 1.5 11.4 1.8 17.1 0.5 10.6 0.4 21.4 0.2 32-0.1 8.7-6.9 16.1-16.1 18.4-6.2 1.6-12.9-1.2-19.1-1.8-7.3-0.6-14.1 1.2-20.6-2.7-4.4-2.6-8.6-2.7-13.5-4.8l-0.2-0.1-0.3-0.1-0.3-0.1-0.3-0.1-0.3-0.1-0.3-0.2-0.3-0.1-0.3-0.1-0.3-0.1-0.3-0.1-0.3-0.2c-5.4-2.1-11.7-4.9-11.9-10.4v-0.4c5 3.8 12.4 3 18.4 3.4 6.8 0.5 13.6 0.8 20.4 1.5 5.2 0.5 10.5 1.2 15.9 1.2 6.4 0.1 11.5-5.1 16.1-8.8 1-4.9 0.9-9.7 2.3-14.5 1.1-3.9-0.7-7.7-1.5-11.5-1.2-5.1-1.8-10.4-3-15.6-0.6-3-1.3-8.3-3.1-10.7-1.8-2.6-0.7-1.5-3.9-1.2-0.8 0.1-7.7 0.7-7.9 0.9-15.5 11.8-35.2 19.7-52.6 29.7q-9.8 0-19.6 0c-1.3 0-6.4-5.5-7.2-6.5-6.8-8.8 1.8-11 9.3-13.3 7.1-2.2 13.8-5.9 20.5-9 13.5-6.3 26.3-13.9 40.8-18.3 9.2-2.8 18.6-4.8 28.3-5.5 1-0.2 3.2-3.5 4.6-4.1 1.9-0.9 4.3-0.7 6.4-1 5.3-0.7 10.4-1.9 15.8-2.1 4.2-0.1 9.8 0 14 1.6zm-11.4-128.3c14.5-6.2 21.9 20.9 12.2 32 14.1-4.8 22.3-15 26.9-28.6q1.9 0 3.7 0c2.6-13.9 13.3-20.4 12.2-37.7-21.7-6-38.4 8.8-55 14.8 0.8 6.3 5.3 14.4 0 19.5zm-58.7 14.9c3.2-0.5 3.5-3.6 4.9-5.7-1.9-0.5-1.1-3.6-4.9-2.3v0.1zm18.3-3.4q6.1 0 12.3 0c-2.3-5.1 7-9.3 0-11.5-4.8 3.2-7.9 8-12.3 11.5zm-18.3-21.8q0 5.2 0 10.3c7.5-0.2 10.1-5 12.2-10.3-4.7-1-5.9-1.1-12.2 0zm57.5 40.1c0.2-1.4 1.9-1.3 3.6-1.2q0-5.1 0-10.3c-3.8 1.3-2.9-1.8-4.9-2.3 0.5 4.4-4.1 11.8 1.3 13.8zm3.6-1.2q0-5.1 0-10.3"/>
			<path id="Object 36" class="s3" d="m580.4 392.4c4.5-0.1 11.5 0.4 19.8 0.4 3.9 0 7.6-0.1 9.3-0.3 0.7 1.9 1.9 3.6 5.2 7.3 12.1 14.5 35.4 41.9 44.1 51.4 0.1 0 0.3-0.2 0.4-0.2 0-17 0.3-36.6-0.6-45.5-0.4-4.3-1.7-6.3-6-7.4-2.7-0.7-5.3-1.1-9-1.5-0.4-0.5-0.3-3.9 0.2-4.2 3.5 0 10 0.4 19 0.4 6.9 0 13.6-0.4 16.1-0.4 0.4 0.4 0.4 3.7 0 4.2-2.2 0.4-4 0.7-5.8 1.2-4 1.2-5.2 3-5.8 7.9-0.9 11.2-1 30.5-1.1 50.1 0 6 0.1 13.7 0.2 18.3-2.1-0.3-10.3-0.1-12.7 0.1-8.1-10.6-42.3-51.8-51.3-62.7-0.3-0.4-0.7-0.1-0.7 0-0.3 14.3-0.2 42 0.2 48.1 0.3 5.6 2.3 7.6 6.3 8.4 2.3 0.5 4.8 0.9 8.3 1.3 0.5 0.6 0.5 3.7-0.2 4.4-4.6 0-11-0.4-17.9-0.4-7.8 0-14 0.4-18 0.4-0.6-0.5-0.4-3.8 0-4.4 3.1-0.4 5.5-0.6 7.9-1.4 3.2-1 4.6-3.1 5-7.6 0.8-7 1.3-31.2 1.4-53.4 0-2.8-1.4-6.5-4.7-7.9-2.7-1.2-5.5-1.8-9.7-2.2-0.5-0.6-0.3-4 0.1-4.4z"/>
			<path id="Object 37" fill-rule="evenodd" class="s3" d="m720.7 431.8c-2.3-3.1-6.2-4.4-10-4.4-3.2 0-5.7 0.8-6.6 1.6-1.2 1.1-3.9 6.1-5.1 8.5-0.5 0.5-4.9-1.5-4.8-2.4 0.1-1.3 2.1-7.7 3.1-8.4 6.8-4.6 16.9-8 21-8 7.2 0 12.8 3.1 15.9 7.7 2.8 3.8 3.5 8.7 3.5 13.3 0 6.4-0.4 15.6-0.4 20.9 0 2.6 1 5.1 4.4 5.1 1.8 0 3-0.1 4.8-0.6 0.2 0.5-0.3 4.5-0.7 4.9-3.5 3.3-9.8 4.9-14.2 4.9-4.5 0-7.2-1.6-8.2-3.9l-0.8-2.5c0-0.2-0.5-0.2-0.6-0.2-7 4.3-13.5 6.6-16.2 6.6-2.9 0-5.9-1.2-8.2-3.2-3.4-3-5.4-7.7-5.4-12.7 0-1.9 1.6-6.5 2.4-7.8 4.4-2.3 21.7-6.2 27-8.4 0.5-0.3 1-0.9 1.1-1.5 0.1-0.9 0.1-1.4 0.1-2.4 0-2.3-0.5-5-2.1-7.1zm1.4 15.2c-4.1 1.5-11.7 3.6-13.6 4.9-0.4 0.4-1.3 3.1-1.3 4.4 0 6.1 4.7 9.4 9.5 9.4 1.6 0 3.3-0.4 4.6-1.2 0.7-0.3 1.1-1.3 1.1-2.6 0.3-3.7 0.3-11.9 0.3-14.2 0-0.1-0.4-0.7-0.6-0.7z"/>
			<path id="Object 38" class="s3" d="m763.1 468.5c2-0.5 2.7-2.4 3-5 0.1-4 0.2-14.2 0.2-20.8 0-3.9-0.1-8.8-0.2-10.5-0.3-1.3-1.5-3.1-7-4.9-0.1-0.8 0.3-3.1 0.7-3.6 7.8-0.8 17.3-3.4 21.7-5.6 0.3 0.2 0.6 0.7 0.6 1 0 1.4-0.2 5.1-0.2 7.4 0 0.4 0.6 0.5 0.7 0.4 7-5.2 13.8-8.2 18.6-8.2 6.5 0 11.1 2.5 14.3 7 2.9 4.1 3.7 9.4 3.7 15.6 0 7.9 0 19.4 0.2 23.8 0 0.9 0.5 1.8 1.2 2.2 2 1.2 4 1.6 7 2 0.3 0.8 0 3.7-0.7 4.4-2.2 0-6.4-0.4-15.5-0.4-7.4 0-10.8 0.3-15.1 0.4-0.3-0.7-0.5-3.8 0-4.4 1.9-0.2 3.5-0.5 4.5-0.8 1.7-0.6 2.3-1.8 2.4-4.3 0.1-5.4 0.4-21.9-0.6-27.2-0.4-2.4-1.7-5.1-4.1-6.7-1.8-1.4-4.1-2-6.9-2-2.4 0-5.8 1-8.2 2.6-0.9 0.5-1.3 1.7-1.3 2.9 0.1 8.9 0.1 23.1 0.3 30.1 0.1 3.3 1 4.1 2.9 4.6 1.5 0.4 2.3 0.6 4.7 0.8 0.3 0.7 0.1 3.7-0.4 4.4-4.4-0.1-9.1-0.4-15.9-0.4-8.6 0-12.6 0.3-15.3 0.4-0.4-0.8-0.4-3.7 0-4.4 1.7-0.1 3-0.4 4.7-0.8z"/>
			<path id="Object 39" class="s3" d="m872.9 420.5c9.9 0 21.6-0.4 28.4-1 0.5 0.5 0.7 3.7 0 4.3-5.4 1-8.8 2-11.8 4.8-3.8 3.7-8.9 8.5-12.5 12.1-0.1 0.1 0 0.4 0 0.6 3 4.9 16.3 21.1 21.6 25.2 2.8 2.3 4.1 2.6 9.5 2.8 0.4 0.7 0 3.9-0.7 4.4-2.7 0.4-11.8 0.5-17 0.5-3.7-0.1-6.6-1.6-8-2.9-3.5-3.2-10.3-12.7-15.6-19.8-1.1-1.4-2.4-3-4.1-3.4 0 6.8 0 10.1 0.2 14.9 0.1 3.9 0.9 4.7 3.6 5.4 1.6 0.4 3 0.7 5 0.9 0.4 0.8 0 3.9-0.7 4.4-3.3 0-8.1-0.4-16.2-0.4-7.8 0-12.2 0.4-15.7 0.4-0.7-0.5-0.7-3.8 0-4.4 2.1-0.2 3.5-0.4 5-0.9 2.1-0.7 2.5-1.9 2.8-4.9 0.3-3.7 0.3-16.3 0.3-22.4 0-33 0-40.7-0.3-43.5-0.1-1.9-0.7-3.2-2.5-3.9-1.5-0.4-3.6-0.8-5.9-1-0.5-0.8-0.4-3.6 0-4 8.7-0.4 20.6-2.4 25.3-4.1 0.2 0.1 1 1.7 1 2.1-1.2 1.7-1.5 4.4-1.7 13.4-0.2 8.7-0.3 19.2-0.2 44.6 1.9-0.3 4.1-1.4 6.4-3.1 5.1-4 11.8-11.5 12-13.7 0-1-0.4-1.7-2.1-2.1-1.8-0.5-5.6-0.9-6.6-1-0.5-0.8 0-3.9 0.5-4.3z"/>
			<path id="Object 40" fill-rule="evenodd" class="s3" d="m945.6 431.8c-2.2-3.1-6.2-4.4-10-4.4-3.2 0-5.7 0.8-6.6 1.6-1.2 1.1-3.9 6.1-5.1 8.5-0.5 0.5-4.9-1.5-4.8-2.4 0.2-1.3 2.1-7.7 3.1-8.4 6.8-4.6 16.9-8 21-8 7.2 0 12.8 3.1 15.9 7.7 2.8 3.8 3.5 8.7 3.5 13.3 0 6.4-0.4 15.6-0.4 20.9 0 2.6 1 5.1 4.4 5.1 1.8 0 3-0.1 4.8-0.6 0.2 0.5-0.3 4.5-0.7 4.9-3.5 3.3-9.8 4.9-14.2 4.9-4.5 0-7.2-1.6-8.2-3.9l-0.8-2.5c0-0.2-0.5-0.2-0.6-0.2-6.9 4.3-13.5 6.6-16.2 6.6-2.9 0-5.9-1.2-8.2-3.2-3.4-3-5.4-7.7-5.4-12.7 0-1.9 1.6-6.5 2.4-7.8 4.4-2.3 21.7-6.2 27-8.4 0.5-0.3 1-0.9 1.1-1.5 0.2-0.9 0.2-1.4 0.2-2.4 0-2.3-0.6-5-2.2-7.1zm1.4 15.2c-4.1 1.5-11.7 3.6-13.6 4.9-0.4 0.4-1.2 3.1-1.2 4.4 0 6.1 4.6 9.4 9.5 9.4 1.5 0 3.2-0.4 4.5-1.2 0.7-0.3 1.1-1.3 1.1-2.6 0.3-3.7 0.3-11.9 0.3-14.2 0-0.1-0.4-0.7-0.6-0.7z"/>
			<path id="Object 41" class="s3" d="m1003.4 408.4c-1.1 0.8-7.6 1.5-9.2 0.7-2.2-0.9-3.7-3-4.4-5.7-0.3-1.3-0.1-4.5 0.9-5.7 1.7-1.5 5.9-2.8 9.3-2.8 3 0 5.1 0.9 5.7 1.6 1 1.1 1.3 3.5 1.3 4.5 0 2.7-1.4 5.9-3.6 7.4zm11.5 65.3c-2.8 0-7.8-0.4-16.1-0.4-7.3 0-12.6 0.4-15.8 0.4-0.4-0.5-0.5-3.8 0-4.4 2.3-0.2 4-0.5 5.6-1 1.8-0.7 2.2-1.9 2.4-5.1 0.1-3 0.3-11.5 0.3-18.2 0-4.6-0.2-9.8-0.2-12.1 0-1.1-0.3-2.4-1.1-3.2-1.1-1.2-2.6-1.9-6-3.1-0.4-0.6-0.1-3.3 0.4-3.8 3.6 0 16.2-1.9 22.9-4.4 0 5.6-0.2 15.1-0.2 22.8 0 6.9 0 15.8 0.2 21.9 0 3.4 0.8 4.5 2.7 5.2 1.2 0.4 2.7 0.6 5.5 1 0.4 0.7 0.1 3.9-0.6 4.4z"/>
			<path id="Object 42" class="s3" d="m1060.1 392.4c4.4 0 12.6 0.4 20.6 0.4 8.3 0 15.4-0.4 20.4-0.4 0.6 0.5 0.6 3.6 0 4.2-2.6 0.4-4.8 0.8-6.5 1.2-3.4 0.7-4.6 2.8-4.7 7.1-0.3 10.6 0 24.6 0 31.7 0.1 5.1 0.6 11.5 1.7 15.6 2 8.6 9.4 14.7 23.1 14.7 10.2 0 21-3.1 22.4-22.1 0.7-10 0.9-28.9 0.3-38.2-0.3-5.6-1.6-7.8-6.3-8.6-1.9-0.6-4.8-1-7.9-1.4-0.4-0.6-0.4-3.4 0.1-4.2 4.4 0 10.4 0.4 17.5 0.4 9.2 0 13.4-0.4 16.4-0.4 0.6 0.5 0.7 3.7 0 4.2-2.1 0.4-4.2 0.7-5.9 1.2-3.7 1-4.9 3.1-5.1 9.6-0.4 11.9-0.7 27.4-1.7 36.5-2.2 24-16.9 31.8-36.5 31.8-24.5 0-33.4-11-35.1-24.4-1.3-9.3-1-34-1.2-46.7-0.1-3.4-1.1-5.7-4.3-6.6-1.7-0.6-4.9-1.1-7.4-1.4-0.4-0.6-0.4-3.7 0.1-4.2z"/>
			<path id="Object 43" class="s3" d="m1172.5 468.5c2-0.5 2.7-2.4 3-5 0.1-4 0.3-14.2 0.3-20.8 0-3.9-0.2-8.8-0.3-10.5-0.3-1.3-1.4-3.1-7-4.9-0.1-0.8 0.3-3.1 0.7-3.6 7.8-0.8 17.3-3.4 21.7-5.6 0.3 0.2 0.6 0.7 0.6 1 0 1.4-0.1 5.1-0.1 7.4 0 0.4 0.5 0.5 0.7 0.4 6.9-5.2 13.7-8.2 18.5-8.2 6.6 0 11.1 2.5 14.4 7 2.8 4.1 3.6 9.4 3.6 15.6 0 7.9 0 19.4 0.2 23.8 0 0.9 0.6 1.8 1.3 2.2 1.9 1.2 3.9 1.6 6.9 2 0.3 0.8 0 3.7-0.7 4.4-2.1 0-6.4-0.4-15.5-0.4-7.3 0-10.7 0.3-15.1 0.4-0.3-0.7-0.4-3.8 0-4.4 2-0.2 3.5-0.5 4.5-0.8 1.7-0.6 2.3-1.8 2.4-4.3 0.2-5.4 0.5-21.9-0.5-27.2-0.5-2.4-1.7-5.1-4.2-6.7-1.8-1.4-4.1-2-6.9-2-2.4 0-5.8 1-8.2 2.6-0.9 0.5-1.3 1.7-1.3 2.9 0.1 8.9 0.1 23.1 0.3 30.1 0.1 3.3 1 4.1 3 4.6 1.4 0.4 2.2 0.6 4.6 0.8 0.3 0.7 0.2 3.7-0.4 4.4-4.4-0.1-9.1-0.4-15.9-0.4-8.6 0-12.6 0.3-15.3 0.4-0.4-0.8-0.4-3.7 0-4.4 1.7-0.1 3-0.4 4.7-0.8z"/>
			<path id="Object 44" class="s3" d="m1269.3 408.4c-1.1 0.8-7.6 1.5-9.2 0.7-2.3-0.9-3.7-3-4.4-5.7-0.3-1.3-0.1-4.5 0.9-5.7 1.7-1.5 5.9-2.8 9.3-2.8 3 0 5.1 0.9 5.7 1.6 1 1.1 1.3 3.5 1.3 4.5 0 2.7-1.5 5.9-3.6 7.4zm11.5 65.3c-2.8 0-7.8-0.4-16.2-0.4-7.2 0-12.6 0.4-15.7 0.4-0.4-0.5-0.6-3.8 0-4.4 2.3-0.2 4-0.5 5.5-1 1.9-0.7 2.3-1.9 2.4-5.1 0.2-3 0.3-11.5 0.3-18.2 0-4.6-0.1-9.8-0.1-12.1 0-1.1-0.3-2.4-1.2-3.2-1.1-1.2-2.5-1.9-5.9-3.1-0.4-0.6-0.2-3.3 0.4-3.8 3.6 0 16.2-1.9 22.8-4.4 0 5.6-0.1 15.1-0.1 22.8 0 6.9 0 15.8 0.1 21.9 0 3.4 0.9 4.5 2.7 5.2 1.3 0.4 2.7 0.6 5.6 1 0.4 0.7 0.1 3.9-0.6 4.4z"/>
			<path id="Object 45" class="s3" d="m1290 420.1c4.1 0.2 10.5 0.4 16.3 0.4 6.9 0 11.8-0.2 14.9-0.4 0.7 0.5 0.8 3.6 0.3 4.3-1.9 0.4-4.1 0.8-5.1 1.2-0.9 0.2-1 1.1-0.9 1.7 1.7 5.2 9.1 23.1 11.5 28.5 0.1 0.3 0.4 0.1 0.6 0 2.6-6.2 8.2-19.1 10-24.9 1.3-3.6 0.3-4.7-1.3-5.2-2.1-0.7-3.9-1.1-6.3-1.3-0.4-0.8 0-3.9 0.5-4.3 2 0 7.5 0.4 12.8 0.4 4.5 0 9.8-0.2 12.5-0.4 0.5 0.4 0.4 3.6-0.2 4.3-2 0.4-3.4 0.5-4.9 1-2.3 0.8-3.9 2.7-5.7 6.4-3.7 7.1-8.8 18.2-13.6 29.4-2.3 5.6-3.7 9.3-4.8 12.5-2.2-0.1-7-0.3-9.1 0.1-1.1-3.4-2.7-7.3-4.4-11.5-3.5-9-8.1-19.4-10.8-25.6-4.1-9.2-4.8-10.2-8.1-11.3-1.6-0.5-3.3-0.8-4.9-1-0.2-0.8 0.1-3.9 0.7-4.3z"/>
			<path id="Object 46" fill-rule="evenodd" class="s3" d="m1418.1 459.4c0.2 1.2-0.4 3.7-0.6 4.1-6.2 7-16.5 11.4-24.9 11.4-8.1 0-14.2-2.4-18.4-6.4-6-5.4-8.4-13.6-8.4-21.6 0-11 5.5-19.4 13.1-23.9 4.6-2.6 11.2-4.3 16.4-4.3 15.2 0 20.4 11.6 21.5 19.1 0.2 0.6 1.3 1.3 2.3 1.6 0.2 0.5-0.6 3.1-1 3.4-4.8 1.5-25.1 2.7-35.7 3-0.4 0-0.7 0.8-0.7 1.4 0.3 3.8 2.1 8.5 5.5 11.6 3.6 3.5 8.1 5.1 14 5.1 6 0 11-1.5 16.3-5.3 0.2 0.1 0.6 0.4 0.6 0.8zm-36.6-20.2c0 0.2 0.3 0.8 0.9 0.8 3.7 0.1 15.4 0 18-0.5 0.6-0.1 0.8-0.7 1-1.2-0.7-7.8-4.3-14.5-10.4-14.5-5.5 0-9.3 6.4-9.5 15.4z"/>
			<path id="Object 47" class="s3" d="m1480.6 422.2c0.2 0.4 0.2 2 0 2.7-0.4 1.8-3.7 8.5-5.7 10.9-0.2 0.2-1.4 0.5-1.7 0.4-2.9-2.8-6.8-5.2-10.6-5.2-1.8 0-3.8 1.2-5.2 2.8-0.5 0.5-0.9 1.7-0.9 2.8-0.1 7.5 0 24.2 0.2 26.2 0.2 3.5 0.7 4.7 3.5 5.3 2.4 0.7 4.8 1 7.8 1.2 0.3 0.7 0 3.7-0.7 4.4-2.6 0-10.2-0.4-19.1-0.4-6 0-12.4 0.4-15.6 0.4-0.5-0.7-0.6-3.8 0-4.4 1.8-0.1 3.8-0.4 5.5-1 1.3-0.4 2.1-1.5 2.3-4.1 0.2-2.4 0.4-12.4 0.4-21 0-4.6 0-8.6-0.3-10.6-0.1-1.7-1-3.5-7.4-5.6 0-0.6 0.3-3 0.7-3.4 5.4-0.4 16.8-2.8 21.7-5.5 0.5 0 0.9 0.4 1 0.7-0.1 1.7-0.5 8.1-0.5 10.2 0 0.4 0.5 0.4 0.8 0.3 2.8-3.1 5.4-5.6 8.4-7.9 2-1.4 4.9-2.7 7.8-2.7 3.4 0 6.3 1.3 7.6 3.5z"/>
			<path id="Object 48" class="s3" d="m1531.4 435.4c-0.6 0.4-3.9 0.6-4.4 0.2-1.2-5.5-2.6-9-5.8-10.8-1.8-1-3.9-1.6-6.3-1.6-4.4 0-7.6 2.6-7.6 6.3 0 3.9 1.7 6.1 13.6 11.3 11.3 4.8 14.7 9.3 14.7 16.3 0 11-11.2 17.7-24.4 17.7-6.6 0-12.7-1.2-16.8-2.6-0.8-2.9-2-13.4-2.2-15.9 0.5-0.5 3.7-1.4 4.6-1.3 2.2 7 4.9 10.9 8.9 13.1 2.3 1.4 5.2 1.9 7.5 1.9 5 0 8.1-2.5 8.1-6.1 0-4-2.6-6.2-9.8-9.6-13.6-6.1-17.7-11-17.7-18.7 0-9.1 7.6-16.9 23-16.9 2.5 0 7 0.4 9.7 0.8l6.6 0.8c-1 4.3-1.3 9.5-1.7 15.1z"/>
			<path id="Object 49" class="s3" d="m1570.3 408.4c-1.1 0.8-7.6 1.5-9.2 0.7-2.3-0.9-3.7-3-4.4-5.7-0.3-1.3-0.1-4.5 0.9-5.7 1.7-1.5 5.9-2.8 9.3-2.8 3 0 5.1 0.9 5.7 1.6 1 1.1 1.3 3.5 1.3 4.5 0 2.7-1.5 5.9-3.6 7.4zm11.5 65.3c-2.8 0-7.8-0.4-16.2-0.4-7.2 0-12.6 0.4-15.7 0.4-0.4-0.5-0.6-3.8 0-4.4 2.3-0.2 4-0.5 5.5-1 1.9-0.7 2.3-1.9 2.4-5.1 0.2-3 0.3-11.5 0.3-18.2 0-4.6-0.1-9.8-0.1-12.1 0-1.1-0.3-2.4-1.1-3.2-1.2-1.2-2.6-1.9-6-3.1-0.4-0.6-0.1-3.3 0.4-3.8 3.6 0 16.2-1.9 22.8-4.4 0 5.6-0.1 15.1-0.1 22.8 0 6.9 0 15.8 0.1 21.9 0 3.4 0.9 4.5 2.7 5.2 1.3 0.4 2.7 0.6 5.6 1 0.4 0.7 0.1 3.9-0.6 4.4z"/>
			<path id="Object 50" class="s3" d="m1617.9 427.9c-0.2 0-0.5 0.6-0.5 0.8-0.2 5.5-0.2 15.6-0.2 21.9 0 5.1 0.2 7.5 0.7 9.8 0.8 3.1 3.7 5.2 7.7 5.2 3.3 0 5.4-0.4 7.9-2 0.5 0.6 0.2 3.6-0.1 4.5-3.8 4.7-10.4 6.8-16 6.8-6.3 0-11.4-2.1-13.9-6.5-2.1-3.5-2.1-7-2.1-14.9 0-6.9 0.1-18.8 0.1-24.4 0-0.4-0.3-1-0.9-1.2-1.9-0.1-4.9-0.2-7-0.5 0-0.9 0.7-4.1 1.2-5.2 1.9-0.2 5-0.9 6-1.3 0.3 0 0.6-0.5 0.7-1v-11.3c3.8-1.2 11.5-5.1 13.5-6.8 0.5-0.1 2.4-0.2 2.9-0.1-0.2 2.6-0.5 9-0.5 17.9 0 0.4 0.3 0.9 0.5 0.9 4.3 0 12.9-0.4 16.2-0.6-0.6 2.1-1.3 6.1-1.4 8.2-4-0.2-9.8-0.2-14.8-0.2z"/>
			<path id="Object 51" class="s3" d="m1641.9 420.1c2 0 8.5 0.4 16.7 0.4 7.7 0 12.3-0.4 15.7-0.4 0.6 0.7 0.6 3.5 0.3 4.3-1.8 0.4-3.7 0.8-4.5 1.2-1.1 0.5-1.3 1.8-1.1 2.3 2.2 6.4 9.9 24.6 11.4 27.6h0.6c4.1-8.5 9.1-21.2 9.8-25.6 0.1-1.7 0.1-3.4-2.6-4.2-1.4-0.5-3.4-0.9-6.2-1.3-0.1-1.2 0.1-3.9 0.6-4.3 2.7 0 7.5 0.4 12.7 0.4 4.9 0 9.4-0.2 13.5-0.4 0.4 0.7 0.6 3.3 0.1 4.3-2.2 0.4-3.6 0.6-5.1 1.3-2.5 0.9-4.2 2.8-5.9 7.3-8.9 22-20.9 44.8-31.9 63.4-1.7 2.9-3.8 6.3-4.8 8.2l-1.6 0.4c-2-0.1-7.5-2.1-8.9-4-0.2-0.5-0.2-2.1 0.1-2.5 4.8-5.3 15.2-17 20.1-26.4-0.4-0.5-0.9-1.6-1.7-3-3.2-7.5-8.7-20.3-13.7-31.2-4.1-9-5.4-11.3-9.4-12.5-1.4-0.4-3.1-0.6-4.9-1-0.2-1.1 0.1-3.8 0.7-4.3z"/>
		</g>
	</g>
</svg>