<?xml version="1.0" encoding="UTF-8" standalone="no"?>
<!-- Created with Inkscape (http://www.inkscape.org/) -->

<svg
   version="1.1"
   id="svg2"
   xml:space="preserve"
   width="163.19067"
   height="81.638"
   viewBox="0 0 163.19067 81.638"
   sodipodi:docname="TUe-logo-scarlet-rgb.ai"
   xmlns:inkscape="http://www.inkscape.org/namespaces/inkscape"
   xmlns:sodipodi="http://sodipodi.sourceforge.net/DTD/sodipodi-0.dtd"
   xmlns="http://www.w3.org/2000/svg"
   xmlns:svg="http://www.w3.org/2000/svg"><defs
     id="defs6"><clipPath
       clipPathUnits="userSpaceOnUse"
       id="clipPath16"><path
         d="M 0,61.228 H 122.393 V 0 H 0 Z"
         id="path14" /></clipPath><clipPath
       clipPathUnits="userSpaceOnUse"
       id="clipPath24"><path
         d="M 0,61.2285 H 122.393 V 0 H 0 Z"
         id="path22" /></clipPath><clipPath
       clipPathUnits="userSpaceOnUse"
       id="clipPath42"><path
         d="M 0,61.228 H 122.393 V 0 H 0 Z"
         id="path40" /></clipPath></defs><sodipodi:namedview
     id="namedview4"
     pagecolor="#ffffff"
     bordercolor="#666666"
     borderopacity="1.0"
     inkscape:pageshadow="2"
     inkscape:pageopacity="0.0"
     inkscape:pagecheckerboard="0" /><g
     id="g8"
     inkscape:groupmode="layer"
     inkscape:label="TUe-logo-scarlet-rgb"
     transform="matrix(1.3333333,0,0,-1.3333333,0,81.638)"><g
       id="g10"><g
         id="g12"
         clip-path="url(#clipPath16)"><g
           id="g18"><g
             id="g20" /><g
             id="g30"><g
               clip-path="url(#clipPath24)"
               opacity="0"
               id="g28"><path
                 d="M 122.393,0 H 0 v 61.228 h 122.393 z"
                 style="fill:#ffffff;fill-opacity:1;fill-rule:nonzero;stroke:none"
                 id="path26" /></g></g></g></g></g><g
       id="g32"
       transform="translate(28.0381,41.6341)"><path
         d="M 0,0 V -26.324 H -8.219 V 0 h -9.614 V 6.838 H 9.613 L 9.613,0 Z"
         style="fill:#c81919;fill-opacity:1;fill-rule:nonzero;stroke:none"
         id="path34" /></g><g
       id="g36"><g
         id="g38"
         clip-path="url(#clipPath42)"><g
           id="g44"
           transform="translate(68.9628,22.3597)"><path
             d="m 0,0 c -0.689,-1.639 -1.675,-3.044 -2.956,-4.215 -1.282,-1.171 -2.828,-2.085 -4.639,-2.74 -1.811,-0.656 -3.821,-0.984 -6.032,-0.984 -2.244,0 -4.262,0.328 -6.057,0.984 -1.795,0.655 -3.316,1.569 -4.566,2.74 -1.25,1.171 -2.211,2.576 -2.884,4.215 -0.673,1.64 -1.01,3.458 -1.01,5.457 v 20.656 h 8.172 v -20 c 0,-0.906 0.12,-1.765 0.361,-2.576 0.24,-0.813 0.608,-1.539 1.105,-2.179 0.496,-0.64 1.154,-1.147 1.971,-1.522 0.817,-0.375 1.802,-0.562 2.956,-0.562 1.154,0 2.139,0.187 2.956,0.562 0.817,0.375 1.482,0.882 1.995,1.522 0.512,0.64 0.881,1.366 1.105,2.179 0.224,0.811 0.337,1.67 0.337,2.576 v 20 H 1.033 V 5.457 C 1.033,3.458 0.689,1.64 0,0"
             style="fill:#c81919;fill-opacity:1;fill-rule:nonzero;stroke:none"
             id="path46" /></g><g
           id="g48"
           transform="translate(75.0822,10.205)"><path
             d="M 0,0 16.664,40.819 H 10.712 L -5.952,0 Z"
             style="fill:#c81919;fill-opacity:1;fill-rule:nonzero;stroke:none"
             id="path50" /></g><g
           id="g52"
           transform="translate(99.8401,33.8814)"><path
             d="M 0,0 C 2.943,0 5.464,-1.806 6.516,-4.37 H -6.516 C -5.464,-1.806 -2.943,0 0,0 m 0,5.373 c -6.857,0 -12.415,-5.559 -12.415,-12.415 0,-6.857 5.558,-12.415 12.415,-12.415 4.4,0 8.896,1.925 11.323,5.394 l -5.631,2.296 C 4.193,-13.429 2.139,-14.085 0,-14.085 c -3.156,0 -5.827,2.076 -6.722,4.937 h 18.956 c 0.117,0.685 0.181,1.388 0.181,2.106 C 12.415,-0.186 6.857,5.373 0,5.373"
             style="fill:#c81919;fill-opacity:1;fill-rule:nonzero;stroke:none"
             id="path54" /></g></g></g></g></svg>
