<?xml version="1.0" encoding="UTF-8"?>
<!DOCTYPE svg PUBLIC "-//W3C//DTD SVG 1.1//EN" "http://www.w3.org/Graphics/SVG/1.1/DTD/svg11.dtd">
<svg xmlns="http://www.w3.org/2000/svg" version="1.1" viewBox="0 0 1052 226" style="shape-rendering:geometricPrecision; text-rendering:geometricPrecision; image-rendering:optimizeQuality; fill-rule:evenodd; clip-rule:evenodd" xmlns:xlink="http://www.w3.org/1999/xlink">
<g><path style="opacity:0.988" fill="#c81818" d="M 403.5,6.5 C 414.52,6.16789 425.52,6.50122 436.5,7.5C 407.5,78.1667 378.5,148.833 349.5,219.5C 338.854,220.499 328.187,220.832 317.5,220.5C 346.167,149.167 374.833,77.8333 403.5,6.5 Z"/></g>
<g><path style="opacity:0.963" fill="#c81818" d="M 800.5,18.5 C 819.343,17.8421 828.177,26.8421 827,45.5C 823.836,56.4269 816.503,61.7603 805,61.5C 787.556,59.6615 780.556,49.9949 784,32.5C 786.956,24.702 792.456,20.0353 800.5,18.5 Z M 801.5,28.5 C 813.17,28.5148 817.67,34.1815 815,45.5C 812.081,51.0248 807.581,52.8581 801.5,51C 794.67,46.8386 792.836,41.0053 796,33.5C 797.73,31.5981 799.563,29.9314 801.5,28.5 Z"/></g>
<g><path style="opacity:0.942" fill="#c71818" d="M 631.5,19.5 C 635.167,19.5 638.833,19.5 642.5,19.5C 642.5,33.1667 642.5,46.8333 642.5,60.5C 638.833,60.5 635.167,60.5 631.5,60.5C 631.5,46.8333 631.5,33.1667 631.5,19.5 Z"/></g>
<g><path style="opacity:0.958" fill="#c71818" d="M 650.5,19.5 C 654.514,19.3345 658.514,19.5012 662.5,20C 667.709,27.5822 672.543,35.4156 677,43.5C 677.5,35.5069 677.666,27.5069 677.5,19.5C 680.833,19.5 684.167,19.5 687.5,19.5C 687.5,33.1667 687.5,46.8333 687.5,60.5C 683.486,60.6655 679.486,60.4988 675.5,60C 670.792,52.083 665.959,44.2496 661,36.5C 660.5,44.4931 660.334,52.4931 660.5,60.5C 657.167,60.5 653.833,60.5 650.5,60.5C 650.5,46.8333 650.5,33.1667 650.5,19.5 Z"/></g>
<g><path style="opacity:0.977" fill="#c71818" d="M 696.5,19.5 C 702.842,19.3338 709.175,19.5005 715.5,20C 730.324,22.1317 736.491,30.6317 734,45.5C 731.732,53.4352 726.565,58.2685 718.5,60C 711.174,60.4997 703.841,60.6663 696.5,60.5C 696.5,46.8333 696.5,33.1667 696.5,19.5 Z M 706.5,28.5 C 711.422,28.708 716.089,29.8747 720.5,32C 726.121,45.5484 721.455,52.0484 706.5,51.5C 706.5,43.8333 706.5,36.1667 706.5,28.5 Z"/></g>
<g><path style="opacity:0.966" fill="#c81919" d="M 740.5,19.5 C 744.167,19.5 747.833,19.5 751.5,19.5C 751.5,24.5 751.5,29.5 751.5,34.5C 756.167,34.5 760.833,34.5 765.5,34.5C 765.5,29.5 765.5,24.5 765.5,19.5C 769.167,19.5 772.833,19.5 776.5,19.5C 776.5,33.1667 776.5,46.8333 776.5,60.5C 772.833,60.5 769.167,60.5 765.5,60.5C 765.5,54.8333 765.5,49.1667 765.5,43.5C 760.833,43.5 756.167,43.5 751.5,43.5C 751.5,49.1667 751.5,54.8333 751.5,60.5C 747.833,60.5 744.167,60.5 740.5,60.5C 740.5,46.8333 740.5,33.1667 740.5,19.5 Z"/></g>
<g><path style="opacity:0.957" fill="#c81818" d="M 827.5,19.5 C 831.5,19.5 835.5,19.5 839.5,19.5C 842.024,28.5733 844.857,37.5733 848,46.5C 851.139,37.5841 853.972,28.5841 856.5,19.5C 860.5,19.5 864.5,19.5 868.5,19.5C 863.903,32.9529 858.903,46.2862 853.5,59.5C 849.62,60.7948 845.786,60.7948 842,59.5C 836.868,46.2432 832.034,32.9099 827.5,19.5 Z"/></g>
<g><path style="opacity:0.948" fill="#c81818" d="M 907.5,19.5 C 911.884,19.1744 916.217,19.5078 920.5,20.5C 925.532,28.3687 930.365,36.3687 935,44.5C 934.63,36.2122 934.464,27.8788 934.5,19.5C 938.167,19.5 941.833,19.5 945.5,19.5C 945.5,33.1667 945.5,46.8333 945.5,60.5C 941.116,60.8256 936.783,60.4922 932.5,59.5C 928.198,52.0346 923.698,44.7012 919,37.5C 918.5,45.1594 918.334,52.8261 918.5,60.5C 914.833,60.5 911.167,60.5 907.5,60.5C 907.5,46.8333 907.5,33.1667 907.5,19.5 Z"/></g>
<g><path style="opacity:0.994" fill="#c71919" d="M 9.5,19.5 C 57.5,19.5 105.5,19.5 153.5,19.5C 153.5,31.8333 153.5,44.1667 153.5,56.5C 136.833,56.5 120.167,56.5 103.5,56.5C 103.5,102.167 103.5,147.833 103.5,193.5C 88.8333,193.5 74.1667,193.5 59.5,193.5C 59.5,147.833 59.5,102.167 59.5,56.5C 42.8333,56.5 26.1667,56.5 9.5,56.5C 9.5,44.1667 9.5,31.8333 9.5,19.5 Z"/></g>
<g><path style="opacity:0.994" fill="#c81818" d="M 169.5,19.5 C 183.833,19.5 198.167,19.5 212.5,19.5C 212.057,57.8586 212.557,96.1919 214,134.5C 217.951,151.453 228.618,159.786 246,159.5C 263.772,159.61 274.438,150.944 278,133.5C 278.5,95.5015 278.667,57.5015 278.5,19.5C 293.167,19.5 307.833,19.5 322.5,19.5C 322.667,59.5014 322.5,99.5014 322,139.5C 316.991,169.846 299.491,188.679 269.5,196C 244.992,201.678 221.659,198.678 199.5,187C 182.342,175.817 172.509,159.984 170,139.5C 169.5,99.5014 169.333,59.5014 169.5,19.5 Z"/></g>
<g><path style="opacity:0.979" fill="#c71818" d="M 595.5,19.5 C 604.833,19.5 614.167,19.5 623.5,19.5C 623.5,22.5 623.5,25.5 623.5,28.5C 617.833,28.5 612.167,28.5 606.5,28.5C 606.5,30.8333 606.5,33.1667 606.5,35.5C 611.833,35.5 617.167,35.5 622.5,35.5C 622.5,38.5 622.5,41.5 622.5,44.5C 617.167,44.5 611.833,44.5 606.5,44.5C 606.5,46.8333 606.5,49.1667 606.5,51.5C 612.5,51.5 618.5,51.5 624.5,51.5C 624.5,54.5 624.5,57.5 624.5,60.5C 614.833,60.5 605.167,60.5 595.5,60.5C 595.5,46.8333 595.5,33.1667 595.5,19.5 Z"/></g>
<g><path style="opacity:0.97" fill="#c71919" d="M 872.5,19.5 C 881.833,19.5 891.167,19.5 900.5,19.5C 900.5,22.5 900.5,25.5 900.5,28.5C 894.5,28.5 888.5,28.5 882.5,28.5C 882.5,30.8333 882.5,33.1667 882.5,35.5C 888.167,35.5 893.833,35.5 899.5,35.5C 899.5,38.5 899.5,41.5 899.5,44.5C 893.833,44.5 888.167,44.5 882.5,44.5C 882.5,46.8333 882.5,49.1667 882.5,51.5C 888.833,51.5 895.167,51.5 901.5,51.5C 901.5,54.5 901.5,57.5 901.5,60.5C 891.833,60.5 882.167,60.5 872.5,60.5C 872.5,46.8333 872.5,33.1667 872.5,19.5 Z"/></g>
<g><path style="opacity:0.987" fill="#c81818" d="M 473.5,67.5 C 507.146,67.3327 529.646,82.9994 541,114.5C 543.554,124.411 544.054,134.411 542.5,144.5C 509.498,144.333 476.498,144.5 443.5,145C 453.865,166.245 470.532,173.578 493.5,167C 498.778,164.449 503.611,161.282 508,157.5C 518.339,160.925 528.172,165.258 537.5,170.5C 528.678,182.59 517.011,190.757 502.5,195C 472.962,203.826 447.796,196.993 427,174.5C 407.418,146.249 407.751,118.249 428,90.5C 440.484,77.3417 455.651,69.675 473.5,67.5 Z M 476.5,96.5 C 491.94,96.9557 503.274,103.956 510.5,117.5C 488.833,118.833 467.167,118.833 445.5,117.5C 452.396,105.247 462.729,98.2471 476.5,96.5 Z"/></g>
<g><path style="opacity:0.961" fill="#c81818" d="M 827.5,85.5 C 834.767,84.4255 841.1,86.2588 846.5,91C 844.317,93.3504 841.984,95.517 839.5,97.5C 836.628,94.8542 833.295,94.0208 829.5,95C 827.473,96.3957 827.14,98.0624 828.5,100C 833.331,101.61 837.997,103.61 842.5,106C 847.619,113.117 846.953,119.784 840.5,126C 830.923,130.197 822.256,128.864 814.5,122C 816.683,119.65 819.016,117.483 821.5,115.5C 825.063,118.582 829.063,119.582 833.5,118.5C 836.044,116.608 836.044,114.775 833.5,113C 829.419,111.529 825.419,109.862 821.5,108C 815.957,102.904 815.124,97.0704 819,90.5C 821.682,88.415 824.516,86.7483 827.5,85.5 Z"/></g>
<g><path style="opacity:0.965" fill="#c81818" d="M 975.5,85.5 C 992.229,83.0121 1001.9,90.0121 1004.5,106.5C 1002.43,123.042 993.098,130.208 976.5,128C 960.712,122.247 955.879,111.414 962,95.5C 965.369,90.5728 969.869,87.2395 975.5,85.5 Z M 977.5,95.5 C 989.41,94.2893 994.243,99.6227 992,111.5C 989.24,117.297 984.74,119.463 978.5,118C 968.442,110.789 968.109,103.289 977.5,95.5 Z"/></g>
<g><path style="opacity:0.947" fill="#c81919" d="M 595.5,86.5 C 599.167,86.5 602.833,86.5 606.5,86.5C 606.334,95.5062 606.5,104.506 607,113.5C 609.081,118.33 612.581,119.663 617.5,117.5C 618.584,116.335 619.417,115.002 620,113.5C 620.5,104.506 620.666,95.5062 620.5,86.5C 624.167,86.5 627.833,86.5 631.5,86.5C 631.903,97.231 631.403,107.898 630,118.5C 626.669,125.255 621.169,128.589 613.5,128.5C 605.831,128.589 600.331,125.255 597,118.5C 595.597,107.898 595.097,97.231 595.5,86.5 Z"/></g>
<g><path style="opacity:0.973" fill="#c71918" d="M 639.5,86.5 C 643.514,86.3345 647.514,86.5012 651.5,87C 656.208,94.917 661.041,102.75 666,110.5C 666.5,102.507 666.666,94.5069 666.5,86.5C 669.833,86.5 673.167,86.5 676.5,86.5C 676.5,100.167 676.5,113.833 676.5,127.5C 672.486,127.666 668.486,127.499 664.5,127C 659.291,119.418 654.457,111.584 650,103.5C 649.5,111.493 649.334,119.493 649.5,127.5C 646.167,127.5 642.833,127.5 639.5,127.5C 639.5,113.833 639.5,100.167 639.5,86.5 Z"/></g>
<g><path style="opacity:0.96" fill="#c81818" d="M 699.5,86.5 C 703.5,86.5 707.5,86.5 711.5,86.5C 713.722,95.3957 716.555,104.062 720,112.5C 722.735,104.129 725.568,95.7961 728.5,87.5C 732.5,86.1667 736.5,86.1667 740.5,87.5C 735.333,100.5 730.167,113.5 725,126.5C 721.591,127.622 718.091,127.789 714.5,127C 708.806,113.751 703.806,100.251 699.5,86.5 Z"/></g>
<g><path style="opacity:0.927" fill="#c71919" d="M 743.5,86.5 C 752.833,86.5 762.167,86.5 771.5,86.5C 771.5,89.5 771.5,92.5 771.5,95.5C 765.833,95.5 760.167,95.5 754.5,95.5C 754.5,97.8333 754.5,100.167 754.5,102.5C 759.833,102.5 765.167,102.5 770.5,102.5C 770.5,105.167 770.5,107.833 770.5,110.5C 765.167,110.5 759.833,110.5 754.5,110.5C 754.5,113.167 754.5,115.833 754.5,118.5C 760.5,118.5 766.5,118.5 772.5,118.5C 772.5,121.5 772.5,124.5 772.5,127.5C 762.833,127.5 753.167,127.5 743.5,127.5C 743.5,113.833 743.5,100.167 743.5,86.5 Z"/></g>
<g><path style="opacity:0.961" fill="#c81818" d="M 779.5,86.5 C 786.841,86.3337 794.174,86.5003 801.5,87C 810.047,90.0997 812.88,95.9331 810,104.5C 808.581,107.296 806.415,109.296 803.5,110.5C 806.959,115.917 810.292,121.417 813.5,127C 809.129,127.828 804.795,127.661 800.5,126.5C 797.746,121.992 795.246,117.326 793,112.5C 791.989,111.663 790.822,111.33 789.5,111.5C 789.5,116.833 789.5,122.167 789.5,127.5C 786.167,127.5 782.833,127.5 779.5,127.5C 779.5,113.833 779.5,100.167 779.5,86.5 Z M 789.5,95.5 C 792.518,95.3354 795.518,95.502 798.5,96C 801.172,98.6788 800.838,101.012 797.5,103C 794.854,103.497 792.187,103.664 789.5,103.5C 789.5,100.833 789.5,98.1667 789.5,95.5 Z"/></g>
<g><path style="opacity:0.974" fill="#c81818" d="M 902.5,86.5 C 906.884,86.1744 911.217,86.5078 915.5,87.5C 917.75,91.6682 920.25,95.6682 923,99.5C 925.877,95.582 928.377,91.4153 930.5,87C 934.833,86.3333 939.167,86.3333 943.5,87C 938.333,94.8333 933.167,102.667 928,110.5C 927.501,116.157 927.334,121.824 927.5,127.5C 924.167,127.5 920.833,127.5 917.5,127.5C 917.666,121.824 917.499,116.157 917,110.5C 911.893,102.611 907.059,94.6106 902.5,86.5 Z"/></g>
<g><path style="opacity:1" fill="#c71919" d="M 684.5,86.5 C 688.167,86.5 691.833,86.5 695.5,86.5C 695.5,100.167 695.5,113.833 695.5,127.5C 691.833,127.5 688.167,127.5 684.5,127.5C 684.5,113.833 684.5,100.167 684.5,86.5 Z"/></g>
<g><path style="opacity:1" fill="#c71818" d="M 852.5,86.5 C 856.167,86.5 859.833,86.5 863.5,86.5C 863.5,100.167 863.5,113.833 863.5,127.5C 859.833,127.5 856.167,127.5 852.5,127.5C 852.5,113.833 852.5,100.167 852.5,86.5 Z"/></g>
<g><path style="opacity:0.953" fill="#c71919" d="M 867.5,86.5 C 878.5,86.5 889.5,86.5 900.5,86.5C 900.5,89.5 900.5,92.5 900.5,95.5C 896.833,95.5 893.167,95.5 889.5,95.5C 889.5,106.167 889.5,116.833 889.5,127.5C 885.833,127.5 882.167,127.5 878.5,127.5C 878.5,116.833 878.5,106.167 878.5,95.5C 874.833,95.5 871.167,95.5 867.5,95.5C 867.5,92.5 867.5,89.5 867.5,86.5 Z"/></g>
<g><path style="opacity:0.997" fill="#c71919" d="M 1010.5,86.5 C 1019.5,86.5 1028.5,86.5 1037.5,86.5C 1037.5,89.5 1037.5,92.5 1037.5,95.5C 1031.83,95.5 1026.17,95.5 1020.5,95.5C 1020.5,97.8333 1020.5,100.167 1020.5,102.5C 1025.83,102.5 1031.17,102.5 1036.5,102.5C 1036.5,105.5 1036.5,108.5 1036.5,111.5C 1031.17,111.5 1025.83,111.5 1020.5,111.5C 1020.5,116.833 1020.5,122.167 1020.5,127.5C 1017.17,127.5 1013.83,127.5 1010.5,127.5C 1010.5,113.833 1010.5,100.167 1010.5,86.5 Z"/></g>
<g><path style="opacity:0.959" fill="#c81818" d="M 681.5,152.5 C 690.04,151.141 697.707,152.975 704.5,158C 702,160.5 699.5,163 697,165.5C 691.005,159.913 685.338,160.246 680,166.5C 675.78,175.93 678.613,182.263 688.5,185.5C 691.862,184.937 694.862,183.603 697.5,181.5C 699.984,183.483 702.317,185.65 704.5,188C 695.321,196.453 685.321,197.453 674.5,191C 666.587,183.645 664.42,174.812 668,164.5C 670.833,158.493 675.333,154.493 681.5,152.5 Z"/></g>
<g><path style="opacity:0.963" fill="#c81818" d="M 810.5,152.5 C 832.246,149.585 842.079,158.918 840,180.5C 834.088,193.259 824.254,197.759 810.5,194C 797.795,187.906 793.628,178.072 798,164.5C 800.744,158.921 804.911,154.921 810.5,152.5 Z M 816.5,161.5 C 824.46,161.296 828.794,165.13 829.5,173C 828.173,182.677 822.839,186.344 813.5,184C 804.86,175.06 805.86,167.56 816.5,161.5 Z"/></g>
<g><path style="opacity:0.973" fill="#c81818" d="M 889.5,152.5 C 912.311,150.14 921.811,160.14 918,182.5C 913.721,190.73 906.888,195.063 897.5,195.5C 878.852,192.557 872.019,181.891 877,163.5C 880.148,158.509 884.314,154.843 889.5,152.5 Z M 895.5,161.5 C 906.446,162.947 910.279,168.947 907,179.5C 901.789,186.436 895.956,187.103 889.5,181.5C 885.698,176.325 885.531,170.992 889,165.5C 891.013,163.752 893.18,162.418 895.5,161.5 Z"/></g>
<g><path style="opacity:0.956" fill="#c81818" d="M 938.5,152.5 C 943.511,152.334 948.511,152.501 953.5,153C 956.196,153.765 958.696,154.932 961,156.5C 961.667,157.5 961.667,158.5 961,159.5C 958.982,161.35 957.149,163.35 955.5,165.5C 947.373,159.269 940.873,160.603 936,169.5C 934.319,180.818 939.152,185.984 950.5,185C 952.25,183.246 952.917,181.079 952.5,178.5C 949.833,178.5 947.167,178.5 944.5,178.5C 944.5,175.5 944.5,172.5 944.5,169.5C 950.5,169.5 956.5,169.5 962.5,169.5C 962.814,177.087 962.481,184.587 961.5,192C 952.067,196.095 942.734,196.095 933.5,192C 922.29,182.23 920.79,171.063 929,158.5C 931.843,155.837 935.009,153.837 938.5,152.5 Z"/></g>
<g><path style="opacity:0.932" fill="#c81919" d="M 708.5,153.5 C 712.167,153.5 715.833,153.5 719.5,153.5C 719.5,158.5 719.5,163.5 719.5,168.5C 724.167,168.5 728.833,168.5 733.5,168.5C 733.5,163.5 733.5,158.5 733.5,153.5C 737.167,153.5 740.833,153.5 744.5,153.5C 744.5,167.167 744.5,180.833 744.5,194.5C 740.833,194.5 737.167,194.5 733.5,194.5C 733.5,188.833 733.5,183.167 733.5,177.5C 728.833,177.5 724.167,177.5 719.5,177.5C 719.5,183.167 719.5,188.833 719.5,194.5C 715.833,194.5 712.167,194.5 708.5,194.5C 708.5,180.833 708.5,167.167 708.5,153.5 Z"/></g>
<g><path style="opacity:0.964" fill="#c81919" d="M 847.5,153.5 C 850.833,153.5 854.167,153.5 857.5,153.5C 857.5,163.833 857.5,174.167 857.5,184.5C 862.833,184.5 868.167,184.5 873.5,184.5C 873.5,187.833 873.5,191.167 873.5,194.5C 864.833,194.5 856.167,194.5 847.5,194.5C 847.5,180.833 847.5,167.167 847.5,153.5 Z"/></g>
<g><path style="opacity:0.982" fill="#c71919" d="M 595.5,153.5 C 606.833,153.5 618.167,153.5 629.5,153.5C 629.5,156.5 629.5,159.5 629.5,162.5C 625.5,162.5 621.5,162.5 617.5,162.5C 617.5,172.833 617.5,183.167 617.5,193.5C 614.167,193.5 610.833,193.5 607.5,193.5C 607.5,183.167 607.5,172.833 607.5,162.5C 603.5,162.5 599.5,162.5 595.5,162.5C 595.5,159.5 595.5,156.5 595.5,153.5 Z"/></g>
<g><path style="opacity:1" fill="#c71919" d="M 633.5,153.5 C 642.833,153.5 652.167,153.5 661.5,153.5C 661.5,156.5 661.5,159.5 661.5,162.5C 655.5,162.5 649.5,162.5 643.5,162.5C 643.5,164.5 643.5,166.5 643.5,168.5C 649.167,168.5 654.833,168.5 660.5,168.5C 660.5,171.5 660.5,174.5 660.5,177.5C 654.833,177.5 649.167,177.5 643.5,177.5C 643.5,179.833 643.5,182.167 643.5,184.5C 649.833,184.5 656.167,184.5 662.5,184.5C 662.5,187.833 662.5,191.167 662.5,194.5C 652.833,194.5 643.167,194.5 633.5,194.5C 633.5,180.833 633.5,167.167 633.5,153.5 Z"/></g>
<g><path style="opacity:0.978" fill="#c81919" d="M 752.5,153.5 C 756.884,153.174 761.217,153.508 765.5,154.5C 770.251,161.666 774.751,169 779,176.5C 779.5,168.841 779.666,161.174 779.5,153.5C 783.167,153.5 786.833,153.5 790.5,153.5C 790.5,167.167 790.5,180.833 790.5,194.5C 786.486,194.666 782.486,194.499 778.5,194C 773.208,185.918 768.042,177.751 763,169.5C 762.481,177.846 762.648,186.179 763.5,194.5C 759.833,194.5 756.167,194.5 752.5,194.5C 752.5,180.833 752.5,167.167 752.5,153.5 Z"/></g>
<g><path style="opacity:0.983" fill="#c81818" d="M 964.5,153.5 C 968.846,153.334 973.179,153.501 977.5,154C 980.126,158.084 982.626,162.25 985,166.5C 987.877,162.582 990.377,158.415 992.5,154C 996.833,153.333 1001.17,153.333 1005.5,154C 1000.33,161.833 995.167,169.667 990,177.5C 989.501,182.823 989.334,188.156 989.5,193.5C 986.167,193.5 982.833,193.5 979.5,193.5C 979.666,187.824 979.499,182.157 979,176.5C 973.916,168.932 969.083,161.265 964.5,153.5 Z"/></g>
</svg>
